<?xml version="1.0" encoding="UTF-8"?>
<svg id="Calque_1" data-name="Calque 1" xmlns="http://www.w3.org/2000/svg" viewBox="0 0 300 350">
  <defs>
    <style>
      .cls-1 {
        fill: #edf0f2;
      }

      .cls-1, .cls-2, .cls-3, .cls-4, .cls-5, .cls-6, .cls-7, .cls-8, .cls-9, .cls-10, .cls-11, .cls-12, .cls-13, .cls-14, .cls-15, .cls-16, .cls-17, .cls-18, .cls-19, .cls-20, .cls-21, .cls-22, .cls-23, .cls-24, .cls-25 {
        stroke-width: 0px;
      }

      .cls-2 {
        fill: #f7cfaa;
      }

      .cls-3 {
        fill: #f6645e;
      }

      .cls-4 {
        fill: #a29ba3;
      }

      .cls-5 {
        fill: #ffd86b;
      }

      .cls-6 {
        fill: #404042;
      }

      .cls-7 {
        fill: #4897c7;
      }

      .cls-9 {
        fill: #414043;
      }

      .cls-10 {
        fill: #45637c;
      }

      .cls-11 {
        fill: #68cdf0;
      }

      .cls-12 {
        fill: #707577;
      }

      .cls-13 {
        fill: #d89c72;
      }

      .cls-14 {
        fill: #f7c399;
      }

      .cls-26 {
        opacity: .4;
      }

      .cls-15 {
        fill: #fff;
      }

      .cls-16 {
        fill: #454849;
      }

      .cls-17 {
        fill: #eebc94;
      }

      .cls-18 {
        fill: #605756;
      }

      .cls-19 {
        fill: #34495d;
      }

      .cls-20 {
        fill: #3e2b11;
      }

      .cls-21 {
        fill: #9b221f;
      }

      .cls-22 {
        fill: #f2f2f2;
      }

      .cls-23 {
        fill: #3d3f0c;
      }

      .cls-24 {
        fill: #4d3f3e;
      }

      .cls-25 {
        fill: #d89d74;
      }
    </style>
  </defs>
  <g id="IMG1">
    <rect class="cls-11" x="3.07" y="9.59" width="293.36" height="235.32"/>
    <g id="BackTabl">
      <rect class="cls-18" x="26.37" y="63.98" width="247.82" height="133.79"/>
      <rect class="cls-7" x="33.15" y="71.63" width="233.55" height="116.04"/>
      <g id="Nuage" class="cls-26">
        <path class="cls-15" d="m237.59,122.78h12.64s2-4.47-6.6-4.51c0,0-.98-5.57-6.04-5.53v10.04Z"/>
        <path class="cls-15" d="m237.59,122.78h-12.64s-2-4.47,6.6-4.51c0,0,.98-5.57,6.04-5.53v10.04Z"/>
      </g>
      <g id="Nuage-2" data-name="Nuage" class="cls-26">
        <path class="cls-15" d="m266.7,86.57h-12.64s-2-4.47,6.6-4.51c0,0,.98-5.57,6.04-5.53v10.04Z"/>
      </g>
      <g id="Nuage-3" data-name="Nuage" class="cls-26">
        <path class="cls-15" d="m194.53,95.47h12.64s2-4.47-6.6-4.51c0,0-.98-5.57-6.04-5.53v10.04Z"/>
        <path class="cls-15" d="m194.53,95.47h-12.64s-2-4.47,6.6-4.51c0,0,.98-5.57,6.04-5.53v10.04Z"/>
      </g>
      <g id="Nuage-4" data-name="Nuage" class="cls-26">
        <path class="cls-15" d="m97.24,88.76h12.64s2-4.47-6.6-4.51c0,0-.98-5.57-6.04-5.53v10.04Z"/>
        <path class="cls-15" d="m97.24,88.76h-12.64s-2-4.47,6.6-4.51c0,0,.98-5.57,6.04-5.53v10.04Z"/>
      </g>
    </g>
    <g id="Tableau">
      <rect id="LPilarTabl" class="cls-4" x="85.07" y="225.2" width="51.62" height="7.45" transform="translate(364.57 247.36) rotate(120)"/>
      <rect id="RTablPilar" class="cls-4" x="162.76" y="223.57" width="51.62" height="7.45" transform="translate(291.13 -49.66) rotate(60)"/>
      <rect id="TablBlanc" class="cls-15" x="72.91" y="96.4" width="154.34" height="113.57"/>
      <circle class="cls-22" cx="154.44" cy="151.65" r="41.82"/>
      <polygon id="FlecheUp" class="cls-3" points="121.25 167.04 127.04 173.17 140.66 158.95 157.85 171.63 177.25 151.55 178.36 151.55 178.36 155.38 187.63 155.55 187.63 135.89 168.57 135.89 168.32 145.25 170.95 145.42 157.25 160.66 140.4 147.8 121.25 167.04"/>
      <rect id="UpTabl" class="cls-4" x="67.93" y="92.57" width="161.62" height="3.83"/>
      <rect id="BottomTabl" class="cls-4" x="67.93" y="209.97" width="161.62" height="3.83"/>
      <rect id="topTablS" class="cls-4" x="146.51" y="83.74" width="7.53" height="10.74"/>
    </g>
    <rect class="cls-8" x="3.72" y="244.91" width="293.36" height="98.55"/>
    <g id="P1">
      <g id="FullCorpsP1">
        <polygon id="chemsiseP1" class="cls-15" points="44.1 135.57 62.74 135.57 53.93 176.4 44.1 135.57"/>
        <path class="cls-19" d="m73.72,187.59s.38,23.87-3.32,43.91h-7.02l-.89-25.53s1.79-9.83-8.04-9.45v-8.94h19.28Z"/>
        <path class="cls-19" d="m35.17,187.59s-.38,23.87,3.32,43.91h8.64s-.72-25.53-.72-25.53c0,0-1.79-9.83,8.04-9.45v-8.94s-19.28,0-19.28,0Z"/>
        <polygon id="CeintureBaseP1" class="cls-8" points="73.73 183 73.72 192.06 35.15 192.25 35.1 183 73.73 183"/>
        <path id="boucleCeintureP1" class="cls-23" d="m54.25,185.55s4.95-.89,5.01,3.03-5.01,2.55-5.01,2.55v-1.85s2.71.03,2.51-1.24-2.51-.77-2.51-.77v-1.72Z"/>
        <path id="LHandP1" class="cls-17" d="m31.75,185.68s4.72,7.97,7.43,7.14,2.81-3.13,2.81-3.13c0,0,3.26.1,3.61-.41s1.98-3.23-.93-3.6-1.18-1.86-2.74-2.11c-1.56-.26-6.78-1.63-6.78-1.63l-3.95-1.56.55,5.3Z"/>
        <path id="RHandP1" class="cls-17" d="m102.32,144.83s-.7-7.02,1.6-7.09l2.3-.06s.45-5.81,2.74-5.36c2.3.45,1.53,6.57,1.53,6.57,0,0,5.36,5.23,1.91,7.02s-3.39,3-3.39,3l-5.23.44s-1.73-2.36-1.57-2.68.1-1.85.1-1.85Z"/>
        <polygon class="cls-14" points="48.33 131.82 48.33 135.57 61.27 135.57 61.27 130.21 48.33 130.21 48.33 131.82"/>
        <path id="CostumeBaseP1" class="cls-19" d="m48.36,134.1s-15.74,1.53-22.3,17.36-5.45,22.81,5.45,34.38l.25-.17,6.9-4.6s-11.4-5.19-5.11-25.19l.51-.77.98,26.3.15,3.91,39.9-.17v-25.19s2.98,6.38,13.02,6.38,21.28-17.45,21.28-17.45c0,0-4.51.34-7.06-4.09,0,0-10.89,11.49-13.7,11.49s-18.13-17.53-18.13-17.53c0,0-1.19-3.4-9.19-4.09l-5.11,32.85h-4.17l-3.66-33.45Z"/>
        <path class="cls-17" d="m36.51,182.3l3.21.74s3.19.37,3.02,1.32c-.17.95,1.36,1.22,1.36,1.22,0,0,3.07.12,2.17,2.28s-.34,1.73-4.28,1.84c-3.94.11-8.17-5.4-8.17-5.4"/>
        <polygon class="cls-21" points="52.44 135.57 52.27 167.55 56.19 167.55 56.19 135.57 52.44 135.57"/>
        <polygon id="LeftSockP1" class="cls-10" points="40.27 230.61 40.27 237.48 40.27 239.58 46.02 239.58 46.02 230.1 40.27 230.39 40.27 230.61"/>
        <polygon id="LeftSockP1-2" data-name="LeftSockP1" class="cls-10" points="64.37 229.9 64.37 236.76 64.37 238.86 69 238.86 69 229.38 64.37 229.67 64.37 229.9"/>
        <path class="cls-24" d="m46.18,236.4v8.43h-17.83s-.97-7.32,3.97-7.36,7.83-1.06,7.83-1.06c0,0,.87,1.53,6.03,0Z"/>
        <path class="cls-24" d="m64,237.55s-.98,1.57-1.38,1.81-.33,5.47-.33,5.47l19.82-.21s1.47-5.96-3.94-6.91c0,0-7.66-.02-9-.49,0,0-3.21,1.21-4.91.13l-.26.21Z"/>
      </g>
      <g id="TeteP1">
        <path id="contourExtChvxP1" class="cls-8" d="m26.23,119.8s-4.43.6-6.64-2.3c-2.21-2.89,1.11-7.15,1.11-7.15,0,0-4.85.62-6.3-4.88-1.45-5.5,4.43-5.76,4.43-5.76,0,0-7.23-6.64.51-9.36.85-2.64-2.85-2.47.86-7.57,1.11-1.53,4.24-1.19,4.24-1.19,0,0-.94-5.45,1.02-6.3s3.66-.43,3.66-.43c0,0-.94-4.77,3.32-6.64,4.26-1.87,6.47-.43,6.47-.43,0,0,2.98-1.79,6.55-.94,0,0,.6-4.09,5.53-3.23,4.94.85,3.96,1.7,3.96,1.7,0,0,2.34-3.32,6.85-2.72s8.4,4.17,8.4,4.17c0,0,.73.74,1.13,1.87,0,0,4.3-1.91,9.19.68,1.65.87,4.6,3.06,3.23,8.85,0,0,4.26-.34,5.36,4.43,1.11,4.77-2.81,7.91-2.81,7.91,0,0,4.94-.09,4.85,4.6s-4.17,4.85-4.17,4.85c0,0,5.7.85,5.53,5.87s-6.38,4.6-6.38,4.6c0,0,2.64,2.13,1.7,4.77s-2.89,3.83-3.4,4-3.57.65-3.57.65c0,0,1.62,4.37-.43,4.97s-4.51,1.53-4.51,1.53l-5.35,1.88-44.36-8.43Z"/>
        <ellipse id="FaceP1" class="cls-14" cx="54.95" cy="105.48" rx="29.49" ry="26.84"/>
        <path class="cls-8" d="m26.23,105.35v1.95l1.87-.04s-.21-4.55,1.36-5.79,2-4.13,2.64-4.55.81.66,2.81-1.52.51-2.99,2.68-3.2c2.17-.21,4.13-.26,4.13-.26,0,0,1.66-2.94,2.81-2.85,1.15.09,1.28,1.74,2.26,2.09s5.7.34,6.38-.21,1-1.7,2.57-1.83c1.57-.13,1.34.81,2.36,1.62s2.98,1.74,4.26,1.49,2.09-.72,3.38-1.4,1.6,1.96,1.81,2.34-.26.43,1.49,1.7,2.43,3.1,4.13,3,1.19,1.43,2,2.41c.81.98-.51,1.19,1.87,1.91s2.89-.26,3.06,1.57,0,3.49,0,3.49l2.3.17-.21-3.91,2.17-.09.09,2.05,2.09.29s-5.79-34.09-35.53-29.23c-29.74,4.85-25.88,28.15-25.88,28.15"/>
        <circle id="RightEyeP1" class="cls-6" cx="67.97" cy="106.91" r="2.23"/>
        <circle id="LeftEyeP1" class="cls-6" cx="40.78" cy="106.91" r="2.23"/>
        <g id="boucheP1">
          <path class="cls-6" d="m47.74,118.66h6.51v5.55s-4.85.26-6.51-5.55Z"/>
          <path class="cls-6" d="m60.76,118.66h-6.51s0,5.55,0,5.55c0,0,4.85.26,6.51-5.55Z"/>
        </g>
      </g>
    </g>
    <g id="Bureau">
      <rect class="cls-20" x="209.34" y="152.75" width="77.28" height="5.95"/>
      <rect class="cls-20" x="218.53" y="239.77" width="58.64" height="5.14"/>
      <polygon class="cls-20" points="213.25 157.74 225.4 240.49 271.8 240.49 282.7 157.74 213.25 157.74"/>
      <path class="cls-12" d="m272.32,152.75s-4.85-20.86-10.21-21.05-6.32,0-6.32,0l.26-2.04h5.87s5.49-1.55,13.66,23.1h-3.26Z"/>
      <rect class="cls-16" x="242.64" y="127.29" width="15.58" height="7.15" rx="3.57" ry="3.57"/>
    </g>
    <g id="PNoir">
      <ellipse class="cls-2" cx="13" cy="307.93" rx="6.77" ry="6.26"/>
      <ellipse class="cls-2" cx="87.85" cy="307.93" rx="6.77" ry="6.26"/>
      <rect class="cls-2" x="46.36" y="336.23" width="13.79" height="7.23"/>
      <path class="cls-9" d="m13.25,272.83s.51,38.13,1.36,48.51,25.36,19.4,38.64,19.57c13.28.17,31.83-13.79,31.83-13.79,0,0,8.15-42.31,5.28-54.3-4.81-20.04-38.1-17.7-38.1-17.7,0,0-30.28-.94-39.01,17.7Z"/>
    </g>
    <g id="PBlond">
      <ellipse class="cls-2" cx="109.21" cy="315.59" rx="5.63" ry="5.88"/>
      <ellipse class="cls-2" cx="191.17" cy="316.15" rx="5.63" ry="5.88"/>
      <ellipse class="cls-5" cx="149.75" cy="287.57" rx="40.54" ry="23.55"/>
      <polygon class="cls-5" points="109.21 287.44 109.61 343.74 190.29 343.74 190.29 287.44 109.21 287.44"/>
    </g>
    <g id="PBlanc">
      <ellipse id="CranePBlanc" class="cls-25" cx="246.97" cy="325.31" rx="29.02" ry="15.88"/>
      <polygon id="CouPBlanc" class="cls-13" points="241.34 339.55 241.34 343.46 254.02 343.55 254.02 339.55 241.34 339.55"/>
      <ellipse id="LOreillePBlanc" class="cls-2" cx="207.38" cy="308.32" rx="5.63" ry="5.88"/>
      <ellipse id="ROreillePBlanc" class="cls-2" cx="288.14" cy="308.32" rx="5.63" ry="5.88"/>
      <path id="ChvxBlanc" class="cls-1" d="m222.78,334.36l48.13.28s14.72-11.06,15.49-20.68,1.11-33.79,1.11-33.79c0,0-.6-2.04,0-4.26s.68-2.3,1.53-3.49.94-1.79,1.02-3.83-2.21-15.15-3.23-16.51c0,0-2.72,6.98-7.83,8.26-6.47.17-20.68.17-20.68.17l-36.34-.85s-8.77,1.62-10.3,12.77c0,0-4.09-.26-4.51,5.19s0,37.19,0,37.19c0,0,2.58,13.85,15.62,19.55Z"/>
    </g>
  </g>
</svg>