<?xml version="1.0" encoding="UTF-8"?>
<svg id="Calque_1" data-name="Calque 1" xmlns="http://www.w3.org/2000/svg" viewBox="0 0 135 110">
  <defs>
    <style>
      .cls-1 {
        fill: #fdffff;
      }

      .cls-1, .cls-2, .cls-3, .cls-4 {
        stroke-width: 0px;
      }

      .cls-2 {
        fill: #fdd879;
      }

      .cls-3 {
        fill: #47509d;
      }

      .cls-4 {
        fill: #fff;
      }
    </style>
  </defs>
  <g id="Grue">
    <g id="BlocGrue">
      <rect class="cls-1" x="16.55" y="39.67" width="17.91" height="1.7" transform="translate(72.18 51.14) rotate(135)"/>
      <rect class="cls-1" x="16.23" y="39.57" width="17.66" height="1.7" transform="translate(35.92 -5.88) rotate(45)"/>
      <rect class="cls-1" x="17.53" y="32.42" width="14.96" height="2.03"/>
      <rect class="cls-1" x="17.53" y="46.49" width="14.96" height="2.03"/>
      <rect class="cls-1" x="11.06" y="38.89" width="14.96" height="2.03" transform="translate(58.44 21.36) rotate(90)"/>
      <rect class="cls-1" x="23.99" y="38.89" width="14.96" height="2.03" transform="translate(71.37 8.43) rotate(90)"/>
    </g>
    <g id="BlocGrue-2" data-name="BlocGrue">
      <polygon class="cls-1" points="34.33 46.51 44.75 34.68 43.76 33.56 33.34 45.39 34.33 46.51"/>
      <polygon class="cls-1" points="43.32 46.33 33.05 34.67 34.04 33.55 44.31 45.21 43.32 46.33"/>
      <rect class="cls-1" x="32.48" y="32.47" width="12.31" height="1.89"/>
      <rect class="cls-1" x="32.48" y="45.61" width="12.31" height="1.89"/>
      <rect class="cls-1" x="26.33" y="38.62" width="13.97" height="1.67" transform="translate(72.77 6.14) rotate(90)"/>
      <rect class="cls-1" x="36.97" y="38.62" width="13.97" height="1.67" transform="translate(83.41 -4.5) rotate(90)"/>
    </g>
    <g id="BlocGrue-3" data-name="BlocGrue">
      <rect class="cls-1" x="16.55" y="55.57" width="17.91" height="1.7" transform="translate(83.43 78.28) rotate(135)"/>
      <rect class="cls-1" x="16.23" y="55.47" width="17.66" height="1.7" transform="translate(47.16 -1.22) rotate(45)"/>
      <rect class="cls-1" x="17.53" y="48.32" width="14.96" height="2.03"/>
      <rect class="cls-1" x="17.53" y="62.39" width="14.96" height="2.03"/>
      <rect class="cls-1" x="11.06" y="54.78" width="14.96" height="2.03" transform="translate(74.34 37.26) rotate(90)"/>
      <rect class="cls-1" x="23.99" y="54.78" width="14.96" height="2.03" transform="translate(87.27 24.33) rotate(90)"/>
    </g>
    <g id="BlocGrue-4" data-name="BlocGrue">
      <rect class="cls-1" x="16.6" y="71.66" width="17.91" height="1.7" transform="translate(94.9 105.72) rotate(135)"/>
      <rect class="cls-1" x="16.28" y="71.56" width="17.66" height="1.7" transform="translate(58.56 3.46) rotate(45)"/>
      <rect class="cls-1" x="17.58" y="64.42" width="14.96" height="2.03"/>
      <rect class="cls-1" x="17.58" y="78.49" width="14.96" height="2.03"/>
      <rect class="cls-1" x="11.11" y="70.88" width="14.96" height="2.03" transform="translate(90.49 53.3) rotate(90)"/>
      <rect class="cls-1" x="24.04" y="70.88" width="14.96" height="2.03" transform="translate(103.42 40.37) rotate(90)"/>
    </g>
    <g id="BlocGrue-5" data-name="BlocGrue">
      <polygon class="cls-1" points="4.81 46.51 17.48 34.68 16.27 33.56 3.61 45.39 4.81 46.51"/>
      <polygon class="cls-1" points="15.74 46.33 3.25 34.67 4.46 33.55 16.94 45.21 15.74 46.33"/>
      <rect class="cls-1" x="2.57" y="32.47" width="14.96" height="1.89"/>
      <rect class="cls-1" x="2.57" y="45.61" width="14.96" height="1.89"/>
      <rect class="cls-1" x="-3.4" y="38.44" width="13.97" height="2.03" transform="translate(43.04 35.87) rotate(90)"/>
      <rect class="cls-1" x="9.53" y="38.44" width="13.97" height="2.03" transform="translate(55.97 22.94) rotate(90)"/>
    </g>
    <g id="BlocGrue-6" data-name="BlocGrue">
      <polygon class="cls-1" points="46.51 45.56 56.23 34.53 55.31 33.49 45.59 44.51 46.51 45.56"/>
      <polygon class="cls-1" points="54.9 45.39 45.32 34.52 46.24 33.47 55.82 44.35 54.9 45.39"/>
      <rect class="cls-1" x="44.79" y="32.47" width="11.47" height="1.76"/>
      <rect class="cls-1" x="44.79" y="44.72" width="11.47" height="1.76"/>
      <rect class="cls-1" x="39.06" y="38.2" width="13.02" height="1.55" transform="translate(84.55 -6.59) rotate(90)"/>
      <rect class="cls-1" x="48.98" y="38.2" width="13.02" height="1.55" transform="translate(94.47 -16.51) rotate(90)"/>
    </g>
    <g id="BlocGrue-7" data-name="BlocGrue">
      <polygon class="cls-1" points="58.07 45.51 68.28 34.49 67.31 33.44 57.11 44.47 58.07 45.51"/>
      <polygon class="cls-1" points="66.88 45.35 56.82 34.48 57.79 33.43 67.85 44.3 66.88 45.35"/>
      <rect class="cls-1" x="56.27" y="32.43" width="12.05" height="1.76"/>
      <rect class="cls-1" x="56.27" y="44.68" width="12.05" height="1.76"/>
      <rect class="cls-1" x="50.57" y="38.12" width="13.02" height="1.63" transform="translate(96.02 -18.14) rotate(90)"/>
      <rect class="cls-1" x="60.99" y="38.12" width="13.02" height="1.63" transform="translate(106.44 -28.56) rotate(90)"/>
    </g>
    <g id="BlocGrue-8" data-name="BlocGrue">
      <polygon class="cls-1" points="21.19 32.24 30.42 23.93 29.54 23.14 20.31 31.45 21.19 32.24"/>
      <polygon class="cls-1" points="29.15 32.11 20.05 23.92 20.93 23.13 30.03 31.32 29.15 32.11"/>
      <rect class="cls-1" x="19.55" y="22.38" width="10.9" height="1.33"/>
      <rect class="cls-1" x="19.55" y="31.61" width="10.9" height="1.33"/>
      <rect class="cls-1" x="15.39" y="26.54" width="9.81" height="1.48" transform="translate(47.57 6.99) rotate(90)"/>
      <rect class="cls-1" x="24.81" y="26.54" width="9.81" height="1.48" transform="translate(57 -2.44) rotate(90)"/>
    </g>
    <g id="BlocGrue-9" data-name="BlocGrue">
      <polygon class="cls-1" points="21.19 21.68 30.42 13.37 29.54 12.58 20.31 20.89 21.19 21.68"/>
      <polygon class="cls-1" points="29.15 21.56 20.05 13.37 20.93 12.58 30.03 20.77 29.15 21.56"/>
      <rect class="cls-1" x="19.55" y="11.82" width="10.9" height="1.33"/>
      <rect class="cls-1" x="19.55" y="21.05" width="10.9" height="1.33"/>
      <rect class="cls-1" x="15.39" y="15.99" width="9.81" height="1.48" transform="translate(37.02 -3.57) rotate(90)"/>
      <rect class="cls-1" x="24.81" y="15.99" width="9.81" height="1.48" transform="translate(46.44 -12.99) rotate(90)"/>
    </g>
    <g id="BlocGrue-10" data-name="BlocGrue">
      <polygon class="cls-1" points="21.23 11.17 30.46 3.47 29.58 2.74 20.35 10.44 21.23 11.17"/>
      <polygon class="cls-1" points="29.19 11.06 20.09 3.46 20.97 2.73 30.07 10.33 29.19 11.06"/>
      <rect class="cls-1" x="19.59" y="2.03" width="10.9" height="1.23"/>
      <rect class="cls-1" x="19.59" y="10.59" width="10.9" height="1.23"/>
      <rect class="cls-1" x="15.78" y="5.84" width="9.1" height="1.48" transform="translate(26.91 -13.75) rotate(90)"/>
      <rect class="cls-1" x="25.21" y="5.84" width="9.1" height="1.48" transform="translate(36.33 -23.18) rotate(90)"/>
    </g>
    <g id="BlocGrue-11" data-name="BlocGrue">
      <polygon class="cls-1" points="70.13 44.94 80.37 34.42 79.39 33.42 69.16 43.94 70.13 44.94"/>
      <polygon class="cls-1" points="78.96 44.78 68.87 34.41 69.84 33.41 79.94 43.78 78.96 44.78"/>
      <rect class="cls-1" x="68.32" y="32.45" width="12.09" height="1.68"/>
      <rect class="cls-1" x="68.32" y="44.14" width="12.09" height="1.68"/>
      <rect class="cls-1" x="62.92" y="37.84" width="12.43" height="1.64" transform="translate(107.8 -30.47) rotate(90)"/>
      <rect class="cls-1" x="73.37" y="37.84" width="12.43" height="1.64" transform="translate(118.25 -40.92) rotate(90)"/>
    </g>
    <g id="BlocGrue-12" data-name="BlocGrue">
      <polygon class="cls-1" points="82.22 43.63 92.46 34.24 91.48 33.35 81.25 42.74 82.22 43.63"/>
      <polygon class="cls-1" points="91.05 43.49 80.96 34.24 81.93 33.34 92.02 42.6 91.05 43.49"/>
      <rect class="cls-1" x="80.41" y="32.49" width="12.09" height="1.5"/>
      <rect class="cls-1" x="80.41" y="42.92" width="12.09" height="1.5"/>
      <rect class="cls-1" x="75.68" y="37.21" width="11.09" height="1.64" transform="translate(119.26 -43.19) rotate(90)"/>
      <rect class="cls-1" x="86.13" y="37.21" width="11.09" height="1.64" transform="translate(129.71 -53.64) rotate(90)"/>
    </g>
    <g id="BlocGrue-13" data-name="BlocGrue">
      <polygon class="cls-1" points="93.97 43.63 102.51 34.24 101.7 33.35 93.16 42.74 93.97 43.63"/>
      <polygon class="cls-1" points="101.34 43.49 92.92 34.24 93.73 33.34 102.15 42.6 101.34 43.49"/>
      <rect class="cls-1" x="92.46" y="32.49" width="10.09" height="1.5"/>
      <rect class="cls-1" x="92.46" y="42.92" width="10.09" height="1.5"/>
      <rect class="cls-1" x="87.6" y="37.35" width="11.09" height="1.37" transform="translate(131.17 -55.11) rotate(90)"/>
      <rect class="cls-1" x="96.32" y="37.35" width="11.09" height="1.37" transform="translate(139.89 -63.83) rotate(90)"/>
    </g>
    <g id="BlocGrue-14" data-name="BlocGrue">
      <polygon class="cls-1" points="104.06 42.76 112.61 34.11 111.79 33.28 103.25 41.94 104.06 42.76"/>
      <polygon class="cls-1" points="111.43 42.63 103.01 34.1 103.82 33.28 112.25 41.81 111.43 42.63"/>
      <rect class="cls-1" x="102.55" y="32.49" width="10.09" height="1.39"/>
      <rect class="cls-1" x="102.55" y="42.11" width="10.09" height="1.39"/>
      <rect class="cls-1" x="98.12" y="36.92" width="10.22" height="1.37" transform="translate(140.83 -65.63) rotate(90)"/>
      <rect class="cls-1" x="106.84" y="36.92" width="10.22" height="1.37" transform="translate(149.55 -74.36) rotate(90)"/>
    </g>
    <g id="BlocGrue-15" data-name="BlocGrue">
      <polygon class="cls-1" points="114.15 41.8 122.7 33.96 121.88 33.21 113.34 41.06 114.15 41.8"/>
      <polygon class="cls-1" points="121.53 41.69 113.1 33.95 113.91 33.2 122.34 40.94 121.53 41.69"/>
      <rect class="cls-1" x="112.64" y="32.49" width="10.09" height="1.26"/>
      <rect class="cls-1" x="112.64" y="41.21" width="10.09" height="1.26"/>
      <rect class="cls-1" x="108.69" y="36.44" width="9.27" height="1.37" transform="translate(150.44 -76.2) rotate(90)"/>
      <rect class="cls-1" x="117.41" y="36.44" width="9.27" height="1.37" transform="translate(159.17 -84.92) rotate(90)"/>
    </g>
    <g id="BlocGrue-16" data-name="BlocGrue">
      <polygon class="cls-1" points="124.24 41.83 132.79 33.99 131.98 33.24 123.43 41.09 124.24 41.83"/>
      <polygon class="cls-1" points="131.62 41.72 123.19 33.98 124 33.23 132.43 40.97 131.62 41.72"/>
      <rect class="cls-1" x="122.73" y="32.52" width="10.09" height="1.26"/>
      <rect class="cls-1" x="122.73" y="41.24" width="10.09" height="1.26"/>
      <rect class="cls-1" x="118.78" y="36.47" width="9.27" height="1.37" transform="translate(160.57 -86.26) rotate(90)"/>
      <rect class="cls-1" x="127.5" y="36.47" width="9.27" height="1.37" transform="translate(169.29 -94.98) rotate(90)"/>
    </g>
    <g id="BlocGrue-17" data-name="BlocGrue">
      <polygon class="cls-1" points="124.19 41.83 132.4 33.96 131.62 33.21 123.41 41.08 124.19 41.83"/>
      <polygon class="cls-1" points="131.27 41.71 123.17 33.95 123.95 33.21 132.05 40.97 131.27 41.71"/>
      <rect class="cls-1" x="122.73" y="32.49" width="9.7" height="1.26"/>
      <rect class="cls-1" x="122.73" y="41.23" width="9.7" height="1.26"/>
      <rect class="cls-1" x="118.74" y="36.48" width="9.3" height="1.31" transform="translate(160.52 -86.25) rotate(90)"/>
      <rect class="cls-1" x="127.12" y="36.48" width="9.3" height="1.31" transform="translate(168.91 -94.64) rotate(90)"/>
    </g>
    <rect class="cls-2" x="68.56" y="39.48" width="15.02" height="16.98"/>
    <rect class="cls-3" x="71.47" y="50.46" width="8.01" height="4"/>
    <rect class="cls-3" x="73.51" y="42.42" width="4.93" height="4"/>
    <rect class="cls-3" x="72.4" y="74.35" width="7.09" height="5.06"/>
    <rect class="cls-1" x="72.4" y="56.46" width="2.07" height="18.73"/>
    <rect class="cls-1" x="77.41" y="56.46" width="2.07" height="18.73"/>
    <polygon class="cls-4" points="74.47 79.41 74.47 82.47 75.37 82.47 76.39 82.47 76.39 83.46 77.49 83.46 77.49 86.45 75.49 86.45 75.46 85.49 74.47 85.46 74.47 84.5 73.48 84.47 73.48 83.48 72.4 83.46 72.4 84.42 71.47 84.47 71.47 86.45 72.4 86.45 72.4 87.45 73.47 87.45 73.45 88.46 78.46 88.46 78.46 87.47 79.48 87.48 79.48 86.46 80.49 86.48 80.49 83.46 79.48 83.45 79.48 82.49 78.48 82.47 78.46 81.45 77.55 81.42 77.55 80.49 76.47 80.42 76.47 79.41 74.47 79.41"/>
    <rect class="cls-1" x="80.31" y="-34.95" width="1.83" height="106.92" transform="translate(121.62 -54.34) rotate(106.17)"/>
    <g id="BlocGrue-18" data-name="BlocGrue">
      <polygon class="cls-1" points="19.82 87.7 32.49 81.65 31.28 81.07 18.62 87.12 19.82 87.7"/>
      <polygon class="cls-1" points="30.75 87.61 18.26 81.64 19.47 81.07 31.95 87.03 30.75 87.61"/>
      <rect class="cls-1" x="17.58" y="80.51" width="14.96" height=".97"/>
      <rect class="cls-1" x="17.58" y="87.24" width="14.96" height=".97"/>
      <rect class="cls-1" x="15.02" y="83.08" width="7.15" height="2.03" transform="translate(102.68 65.5) rotate(90)"/>
      <rect class="cls-1" x="27.95" y="83.08" width="7.15" height="2.03" transform="translate(115.61 52.57) rotate(90)"/>
    </g>
    <g id="BlocGrue-19" data-name="BlocGrue">
      <polygon class="cls-1" points="19.82 97.31 32.49 89.64 31.28 88.91 18.62 96.58 19.82 97.31"/>
      <polygon class="cls-1" points="30.75 97.19 18.26 89.63 19.47 88.91 31.95 96.46 30.75 97.19"/>
      <rect class="cls-1" x="17.58" y="88.21" width="14.96" height="1.23"/>
      <rect class="cls-1" x="17.58" y="96.73" width="14.96" height="1.23"/>
      <rect class="cls-1" x="14.06" y="91.72" width="9.05" height="2.03" transform="translate(111.33 74.14) rotate(90)"/>
      <rect class="cls-1" x="26.99" y="91.72" width="9.05" height="2.03" transform="translate(124.26 61.21) rotate(90)"/>
    </g>
    <rect class="cls-1" x="30.49" y="85.29" width="9.78" height=".95" transform="translate(61.69 -3.2) rotate(38.89)"/>
    <rect class="cls-1" x="29.7" y="88.49" width="9.78" height=".95"/>
    <rect class="cls-1" x="30.19" y="97.54" width="17.61" height=".95" transform="translate(137.02 59.02) rotate(90)"/>
    <g id="BlocGrue-20" data-name="BlocGrue">
      <polygon class="cls-1" points="19.82 107.05 32.49 99.39 31.28 98.66 18.62 106.32 19.82 107.05"/>
      <polygon class="cls-1" points="30.75 106.94 18.26 99.38 19.47 98.65 31.95 106.21 30.75 106.94"/>
      <rect class="cls-1" x="17.58" y="97.95" width="14.96" height="1.23"/>
      <rect class="cls-1" x="17.58" y="106.47" width="14.96" height="1.23"/>
      <rect class="cls-1" x="14.06" y="101.47" width="9.05" height="2.03" transform="translate(121.07 83.89) rotate(90)"/>
      <rect class="cls-1" x="26.99" y="101.47" width="9.05" height="2.03" transform="translate(134 70.96) rotate(90)"/>
    </g>
  </g>
</svg>