<?xml version="1.0" encoding="UTF-8"?>
<svg id="Calque_1" data-name="Calque 1" xmlns="http://www.w3.org/2000/svg" viewBox="0 0 300 250">
  <defs>
    <style>
      .cls-1 {
        fill: #72d3f4;
      }

      .cls-1, .cls-2, .cls-3, .cls-4, .cls-5, .cls-6, .cls-7, .cls-8, .cls-9, .cls-10, .cls-11, .cls-12, .cls-13, .cls-14, .cls-15, .cls-16, .cls-17, .cls-18, .cls-19, .cls-20, .cls-21, .cls-22, .cls-23, .cls-24 {
        stroke-width: 0px;
      }

      .cls-2 {
        fill: #7f8c8d;
      }

      .cls-3 {
        fill: #472c13;
      }

      .cls-4 {
        fill: #e77f16;
      }

      .cls-5 {
        fill: #404042;
      }

      .cls-6 {
        fill: #7f8d86;
      }

      .cls-7 {
        fill: #ecc19e;
      }

      .cls-8 {
        fill: #6a7272;
      }

      .cls-9 {
        fill: #ab6a5a;
      }

      .cls-10 {
        fill: #414043;
      }

      .cls-11 {
        fill: #176f87;
        opacity: .3;
      }

      .cls-12 {
        fill: #68cdf0;
      }

      .cls-13 {
        fill: none;
      }

      .cls-14 {
        fill: #2d3e54;
      }

      .cls-15 {
        fill: #2a82c7;
      }

      .cls-16 {
        fill: #5a595c;
      }

      .cls-17 {
        fill: #fff;
      }

      .cls-18 {
        fill: #ffe37c;
      }

      .cls-19 {
        fill: #eba687;
      }

      .cls-20 {
        fill: #676d6a;
      }

      .cls-21 {
        fill: #423c3b;
      }

      .cls-22 {
        fill: #90bfe0;
      }

      .cls-23 {
        fill: #747f7f;
      }

      .cls-24 {
        fill: #9b221f;
      }
    </style>
  </defs>
  <g id="ImgFull2">
    <rect id="Background2ndImg" class="cls-12" x="4.1" y="7.14" width="292.65" height="235.75"/>
    <g id="Vitre">
      <rect id="cadreFenetre" class="cls-16" x="29.58" y="63.27" width="246.74" height="133.68"/>
      <rect id="Ciel" class="cls-22" x="36.89" y="70.98" width="231.99" height="104.42"/>
      <g id="Nuages">
        <path class="cls-17" d="m131.2,132.88s-1.06-9.16,7.65-9.26c1.65-3.01,1.26-7.62,9.77-7.21s11.03,8.23,11.03,8.23c0,0,12-1.92,12,8.25-3.48.15-40.45,0-40.45,0Z"/>
        <path class="cls-17" d="m45.7,137.98h-8.76s-.53-3.1,3.82-3.15c.48-.05-.53-8.36,8.27-7.73s9.44,5.17,9.44,5.17c0,0,4.84.58,5.08,5.71h-17.85Z"/>
        <path class="cls-17" d="m253.94,115.72s.39-9.48-12.19-9.38c0,0-2.06-7.19-9.87-7.13-7.81.06-7.94,7.13-7.94,7.13,0,0-14.58-.1-11.1,9.71l41.1-.33Z"/>
        <path class="cls-17" d="m268.84,86.11h-10.97s-.94-3.22,4.98-3.17c0,0-.27-4.96,5.98-4.94h.04s0,8.1,0,8.1h-.04Z"/>
      </g>
      <g id="ImmeublesBackground">
        <rect class="cls-15" x="73.51" y="81.68" width="51.76" height="107.35"/>
        <rect class="cls-15" x="125.27" y="170.95" width="15.29" height="18.08"/>
        <rect class="cls-15" x="140.55" y="136.18" width="24.39" height="52.85"/>
        <rect class="cls-15" x="164.94" y="109.66" width="29.44" height="79.38"/>
        <rect class="cls-15" x="194.38" y="175.17" width="37.97" height="13.86"/>
        <rect class="cls-15" x="232.35" y="116.37" width="36.52" height="72.66"/>
        <rect class="cls-15" x="43.08" y="138.26" width="51.76" height="50.77"/>
        <rect class="cls-15" x="37.06" y="173.85" width="14.75" height="15.18"/>
      </g>
      <rect class="cls-11" x="36.89" y="70.98" width="231.99" height="118.05"/>
    </g>
    <g id="PersoP2">
      <g id="CorpsP2">
        <ellipse class="cls-9" cx="247.04" cy="184.87" rx="4.26" ry="6.19"/>
        <rect class="cls-8" x="202.73" y="233.05" width="9.66" height="4.52"/>
        <rect class="cls-8" x="227.98" y="232.91" width="9.66" height="4.52"/>
        <ellipse class="cls-9" cx="172.73" cy="159.83" rx="6.77" ry="5.32"/>
        <path id="Costume" class="cls-6" d="m224.33,131.27s17.68,1.42,21.89,17.79c3.5,13.6,4.94,33.62,4.94,33.62h-8.51s.17-12.6-3.74-28.09c-3.91-15.49-.48-.34-.48-.34v32.51h-36.71l.68-32s-18.55,6.98-23.91,9.28l-3.15-9.62s21.35-6.42,25.84-13.92c4.32-7.23,12.72-8.97,13.65-9.23h9.51Z"/>
        <path class="cls-2" d="m238.42,186.76l-.45,47.74s-4.34-.77-10.98,0l.12-36.3s.15-4.12-6.93-4.34c-6.57-.21-6.87,4.6-6.87,4.6l-.14,36.04s-6.53-.47-11.25,0l-.21-47.74h36.71Z"/>
        <path class="cls-10" d="m213.88,240.63s-.51-6.21,8.34-6.13c0,0,4.05.02,4.5,0s11.25-.17,11.25-.17v8.55h-24.09v-2.26Z"/>
        <path class="cls-10" d="m187.34,242.89s-.26-7.72,4.31-7.72h21.22v7.72h-25.53Z"/>
        <path class="cls-9" d="m215.21,129.85v3.83s.38,2.94,4.46,2.62,5.49-2.04,5.49-2.04v-5.94h-9.95"/>
        <g id="col">
          <rect class="cls-23" x="201.71" y="186.76" width="36.7" height="1.06"/>
          <path class="cls-17" d="m214.46,131.36s.26-.15.75-.09v2.33s.36,2.76,4.23,2.71c3.87-.05,5.72-2.31,5.72-2.31v-2.63s2.24.3,2.75.57l.08.02.04.88v11.35l-6.01,19.5s-4.35,7.02-4.5,7.31-2.43,2.52-2.43,2.52l-3.62-10.69-1.79-14.61,1.35-9.63,1.89-4.16,1.16-2.37.2-.36.17-.31Z"/>
          <path class="cls-13" d="m218.57,165.47l-3.48,5.85c.56-.85,1.88-2.92,3.48-5.85Z"/>
          <path class="cls-1" d="m219.12,164.44s.19-.38.2-.39l.67-27.79c-.49.12-1.87.02-2.3-.22-.21.77-3.47,13.14-3.59,20.64-.13,7.74,1.09,14.51,1.09,14.51,0,0,.96-1.17.96-1.17l2.97-5.57Z"/>
          <path class="cls-20" d="m228.71,133.86s.02-.02.02-.02h0s0,.02,0,.02Z"/>
          <path class="cls-20" d="m227.99,131.95c-.83,12.56-5.56,26.46-9.4,33.49h0s-.02.03-.02.03c-1.6,2.93-2.92,5-3.48,5.85h0c-.19.29-.3.45-.3.45-7.23-27.87-.34-40.41-.34-40.41-2.48,1.36-2.32,1.71-2.32,1.71-8.55,17.38,2.95,42.12,2.95,42.12,18.87-14.03,12.9-43.24,12.9-43.24Z"/>
          <polygon class="cls-20" points="215.09 171.32 215.09 171.32 215.09 171.32 215.09 171.32"/>
          <path class="cls-20" d="m218.59,165.44h0s-.01.02-.02.03l.02-.03Z"/>
        </g>
      </g>
      <g id="TeteP2">
        <ellipse id="FaceBase_P2" data-name="FaceBase$P2" class="cls-9" cx="219.95" cy="102.05" rx="28.21" ry="27.33" transform="translate(111.33 318.83) rotate(-88.28)"/>
        <g id="boucheP1">
          <path class="cls-5" d="m201.8,115.72h6.51v5.55s-4.85.26-6.51-5.55Z"/>
          <path class="cls-5" d="m214.82,115.72h-6.51s0,5.55,0,5.55c0,0,4.85.26,6.51-5.55Z"/>
        </g>
        <path id="Chevx1P2" class="cls-10" d="m192.63,101.23c.47-15.57,13.08-27.83,28.17-27.38,15.09.45,26.94,13.45,26.47,29.02-.14,4.67-1.38,9.03-3.44,12.85,4.6-5.3,7.39-12.16,7.39-19.66,0-16.79-13.92-30.4-31.09-30.4s-31.09,13.61-31.09,30.4c0,6.91,2.36,13.27,6.33,18.38-1.88-3.98-2.88-8.47-2.74-13.21Z"/>
        <path class="cls-10" d="m194.11,92.88s15.09,7.93,36.66,3.33c0,2.3,2.04,2.81,2.04,2.81v7.4h3.06v-6.77s5.18-5.82,4.98,4.66c-.13,6.53-1.66,4.15-1.66,4.15l-.11,13.68s9.87-9.5,11.52-20.09c1.65-10.6-8.34-21.03-8.34-21.03,0,0,1.4-6.51-7.28-7.91-8.68-1.4-27.32-3.57-30.38-1.4-3.06,2.17-8.04,7.4-9.57,9.83s-2.04,10.21-2.04,10.85,1.12.5,1.12.5Z"/>
        <circle class="cls-10" cx="198.77" cy="104.74" r="1.81"/>
        <circle class="cls-10" cx="217.04" cy="104.53" r="1.81"/>
      </g>
    </g>
    <g id="Perso1v2">
      <g id="CorpsP1v2">
        <polygon id="RMancheCostume" class="cls-14" points="98.68 175.49 105.33 183.15 97.25 185.32 91.57 177.53 98.68 175.49"/>
        <path id="Chemise" class="cls-17" d="m72.47,132.47s-4,36.96,3.66,39.96,16.66,3.06,16.66,3.06c0,0,1.72-17.49,1.72-18.32s-.24-21.88-8.8-24.28l-6.33.15-6.91-.57Z"/>
        <polygon id="Cravate" class="cls-24" points="81.68 139.23 79.19 139.23 79.19 135.4 85.45 135.4 85.45 138.98 84.1 138.98 89.15 165.21 89.06 175.74 83.91 176.64 81.68 161.32 81.68 139.23"/>
        <path id="Costume-2" data-name="Costume" class="cls-14" d="m72.47,132.47s-22.38,3.57-23.79,52.85l8.72-.34s-.17-22.64,4.6-27.74l-.6,23.83,37.28.09v-35.49s.6-7.93-13.45-12.94c0,0,4.77,4.77,5.11,10.05s.09,14.55.09,14.55c0,0-.51,9.19-3.11,15.66l-2,.09s-11.36-21.62-12.13-32.51l.04-8.09h-.77Z"/>
        <ellipse id="RHand" class="cls-19" cx="102.21" cy="186.7" rx="4.21" ry="4.69"/>
        <circle id="LHand" class="cls-19" cx="53.37" cy="190.14" r="5.46"/>
        <polygon id="Cou" class="cls-7" points="73.41 129.4 73.21 133.07 82.32 134.16 85.77 133.3 85 129.56 73.41 129.4"/>
        <g id="Malette">
          <rect id="MaletteB" class="cls-4" x="79.19" y="189.4" width="46.21" height="27.77"/>
          <polygon id="MaletteH" class="cls-4" points="98.2 189.4 98.2 187.22 105.33 187.22 105.33 189.4 109.16 189.4 109.16 185.32 96.33 185.32 96.33 189.4 98.2 189.4"/>
        </g>
        <path id="RShoe" class="cls-3" d="m87.19,237.23v5.87h24.09s.89-5.87-7.96-5.87h-16.13Z"/>
        <path id="LSHoe" class="cls-3" d="m61.32,236.73v6.55l19.89-.11s1.3-6.48-7.81-6.44c-9.11.04-12.08,0-12.08,0Z"/>
        <polygon id="Pantalon" class="cls-14" points="61.32 185.32 98.45 185.32 98.45 237.23 87.19 237.23 87.1 197.23 71.28 197.17 71.28 236.85 61.32 236.7 61.32 185.32"/>
        <polygon id="Ceinture" class="cls-3" points="61.4 181.06 61.32 185.32 98.45 185.32 98.45 181.15 61.4 181.06"/>
        <rect id="CeintureDore" class="cls-18" x="82.74" y="181.06" width="6.64" height="3.57"/>
      </g>
      <g id="FaceP1v2">
        <polygon class="cls-21" points="103.96 108.69 109.29 109.39 103.76 123.28 98.98 123.63 103.96 108.69"/>
        <circle id="FaceBaseP12E" class="cls-7" cx="79.7" cy="104.25" r="28.47"/>
        <circle class="cls-10" cx="83.24" cy="107.1" r="1.95"/>
        <circle class="cls-10" cx="101.59" cy="107.1" r="1.95"/>
        <path class="cls-21" d="m65.66,109.04h2.38v-9.77s-.09-1.36,1.02-1.19-.17-3.06,1.62-2.98c1.79.09,3.06,1.36,3.66-.6s4.77-2.3,4.77-2.3c0,0,0-2.3,1.19-2.13s1.64,1.62,2.95,1.7,2.59.94,4.8.51c2.21-.43,2.38-.51,3.7-1.62s2.26,1.62,2.77,1.79-.09.17.94.51,1.53.68,2.38,1.02,1.79.34,2.55.26,1.53-1.02,1.79-1.02,1.87-.26,2.3.34,1.19,2.13,1.28,2.47.34,2.3.43,2.89,1.54,10.54,1.36,11.31,4.51-21.61,1.7-26.55c-2.81-4.94-22.89-13.11-28.51-12.77-5.62.34-15.06,2.04-18.98,5.28s-14.89,16.68-14.47,20.68,6.98,22.72,6.98,22.72l5.56,5.54,5.74,3.96s.78.5,1.8-1.16,1.4-4.17.81-4.64-1.57.04-2.04-.72-.13-2.51-.13-2.51c0,0,3.36-3.15,3.11-4.26s-2.3-3.79-5.23-3.28c-2.94.51-3.62-.68-3.62-1.06s-.38-2.17-.26-3.28.13-1.32.51-1.83.68-1.06,1.11-1.49,1.49-1.87,2.68-1.7c1.19.17,1.36,4.13,1.36,4.13v1.72Z"/>
        <path class="cls-21" d="m65.96,129.19s-5.79.7-6.59.18-1.95-1.76-1.56-3.29c0,0-4.98.77-6.57-1.24s0-5.55,0-5.55c0,0-4.98.86-6.06-2.11s0-7.88,0-7.88c0,0-5.81-.19-4.21-4.72s3.13-3.32,3.13-3.32c0,0-2.68-3.7-2.3-6s3.45-3.26,3.45-3.26c0,0,.38-2.04,1.53-2.74,0,0-1.72-1.4-1.34-2.74s1.21-1.6,1.21-1.6c0,0,.06-3.19,1.85-2.94,0,0,.51-4.28,2.74-4.6,0,0,1.34-3.19,2.74-2.68,0,0,.77-6.06,4.79-5.55l10.21-.03s1.02-5.67,5.36-4.82,5.36,2.04,5.36,2.04c0,0,3.49-4.68,6.98-3.83,3.49.85,8.34,4.43,8.68,6.98,0,0,8.85-1.87,10.98.43,2.13,2.3,1.11,7.91,1.11,7.91,0,0,3.32.09,3.66,1.45s3.15.77,3.49,2.47-.94,10.81-.94,10.81c0,0,2.81.6,2.3,2.64s-2.81,3.15-2.81,3.15c0,0,2.93,1.36,2.87,3.57s.7,5.49-2.45,7.13-1.45,2.49-1.36,4.7-.17,3.4-.94,3.4-4.26,1.18-4.26,1.18c0,0-1.32,4.91-2.64,5.88-1.32.98-4.72,2.72-6.13,3.45s-4.1,1.12-4.1,1.12c0,0,12.94-8.78,13.38-18.53.89-19.91,4.85-27.44-10.72-29.04-10.41-1.07-31.47.26-34.28,2.87-2.81,2.62-7.28,1.98-8.49,7.91-1.21,5.94-1.85,13.4-.38,17.62s3,8.94,6.57,10.47c3.57,1.53,5.73,9.1,5.73,9.1Z"/>
        <g id="boucheP1-2" data-name="boucheP1">
          <path class="cls-5" d="m85.23,118.33h6.51v5.55s-4.85.26-6.51-5.55Z"/>
          <path class="cls-5" d="m98.25,118.33h-6.51s0,5.55,0,5.55c0,0,4.85.26,6.51-5.55Z"/>
        </g>
      </g>
    </g>
  </g>
</svg>