<?xml version="1.0" encoding="UTF-8"?>
<svg id="Calque_1" data-name="Calque 1" xmlns="http://www.w3.org/2000/svg" viewBox="0 0 300 250">
  <defs>
    <style>
      .cls-1 {
        fill: #7f8c8d;
      }

      .cls-1, .cls-2, .cls-3, .cls-4, .cls-5, .cls-6, .cls-7, .cls-8, .cls-9, .cls-10, .cls-11, .cls-12, .cls-13, .cls-14, .cls-15, .cls-16, .cls-17, .cls-18 {
        stroke-width: 0px;
      }

      .cls-2 {
        fill: #b9412a;
      }

      .cls-3 {
        fill: #bbc2ca;
      }

      .cls-5 {
        fill: #f0dbc9;
      }

      .cls-6 {
        fill: #6ac8e7;
      }

      .cls-7 {
        fill: #bfc4cb;
      }

      .cls-8 {
        fill: #be6a7f;
      }

      .cls-9 {
        fill: #6a7474;
      }

      .cls-10 {
        fill: #808b8d;
      }

      .cls-11 {
        fill: #6ba174;
      }

      .cls-12 {
        fill: #dfc7aa;
      }

      .cls-13 {
        fill: #f7f6eb;
      }

      .cls-14 {
        fill: #d74f2b;
      }

      .cls-15 {
        fill: #748283;
      }

      .cls-16 {
        fill: #e6e5ea;
      }

      .cls-17 {
        fill: #bbc2c8;
      }

      .cls-18 {
        fill: #7d8b8e;
      }
    </style>
  </defs>
  <g id="PC">
    <rect class="cls-9" x="12.66" y="1.96" width="284.6" height="196.09" rx="13.36" ry="13.36"/>
    <rect class="cls-10" x="23.38" y="17.28" width="261.45" height="165.11"/>
    <rect class="cls-13" x="34.75" y="46.52" width="235.19" height="135.87"/>
    <path class="cls-3" d="m38.09,31.45h228.51c1.84,0,3.34,1.5,3.34,3.34v11.72H34.75v-11.72c0-1.84,1.5-3.34,3.34-3.34Z"/>
    <circle class="cls-8" cx="39.07" cy="38.98" r="2.19"/>
    <circle class="cls-12" cx="47.3" cy="38.98" r="2.19"/>
    <circle class="cls-11" cx="55.04" cy="38.98" r="2.19"/>
    <rect class="cls-7" x="121.51" y="164.26" width="61.66" height="7.66" rx="2.81" ry="2.81"/>
    <path class="cls-18" d="m171.75,164.26h8.62c1.55,0,2.81,1.26,2.81,2.81v2.04c0,1.55-1.26,2.81-2.81,2.81h-8.62v-7.66h0Z"/>
    <rect class="cls-16" x="66.62" y="36.68" width="185.96" height="4.62" rx=".5" ry=".5"/>
    <ellipse class="cls-17" cx="152.34" cy="108.05" rx="41.19" ry="42.26"/>
    <path class="cls-1" d="m106.11,198.05l-10.38,26.89s-3.4,19.06,13.28,24h85.45s19.91-5.28,14.47-24.17c-4.94-11.57-10.72-26.72-10.72-26.72h-92.09Z"/>
    <polygon class="cls-15" points="104.01 203.48 106.11 198.05 198.19 198.05 199.8 202.2 199.8 203.48 104.01 203.48"/>
    <g id="PersoPcRoux">
      <circle class="cls-5" cx="152.34" cy="108.05" r="26.48"/>
      <ellipse class="cls-5" cx="179.04" cy="112.13" rx="3.88" ry="3.55"/>
      <path class="cls-14" d="m153.03,94.47c9.85,0,18.75,2.94,25.12,7.66-2.69-11.78-13.22-20.57-25.81-20.57s-23.89,9.45-26.07,21.88c6.43-5.49,16.03-8.97,26.76-8.97Z"/>
      <path class="cls-2" d="m152.34,81.57c4.3,0,8.35,1.05,11.94,2.87,0-.12.02-.24.02-.36,0-6.38-5.17-11.56-11.56-11.56s-11.54,5.16-11.56,11.52c3.39-1.58,7.17-2.47,11.16-2.47Z"/>
      <path class="cls-14" d="m126.27,103.45s-.44,2.6-.41,4.35c0,0,27.01-4.68,36.71-3.83l3.57-6.43,12.67,9.04-.67-4.44-11.96-10.3-15.15-1.36-18.3,2.47-4.43,5.79-1.79,3.44-.26,1.28Z"/>
      <circle class="cls-4" cx="139.56" cy="110.57" r="1.62"/>
      <circle class="cls-4" cx="165.92" cy="109.67" r="1.62"/>
      <path class="cls-4" d="m146.7,121.28h5.51v5.02s-5.17-.17-5.51-5.02Z"/>
      <path class="cls-4" d="m157.71,121.28h-5.51s0,5.02,0,5.02c0,0,5.17-.17,5.51-5.02Z"/>
      <rect class="cls-5" x="146.7" y="132.23" width="11.91" height="4.16"/>
      <path class="cls-6" d="m134.36,145.32s1.51-8.94,12.34-8.94h11.91s10.9.51,11.55,9.77v10.98l-35.8.57v-12.38Z"/>
      <ellipse class="cls-5" cx="125.4" cy="112.19" rx="3.88" ry="3.55"/>
    </g>
  </g>
</svg>