<?xml version="1.0" encoding="UTF-8"?>
<svg id="Calque_2" data-name="Calque 2" xmlns="http://www.w3.org/2000/svg" viewBox="0 0 58.94 66.26">
  <defs>
    <style>
      .cls-1 {
        fill: #000;
      }

      .cls-1, .cls-2, .cls-3 {
        stroke-width: 0px;
      }

      .cls-2 {
        fill: #c4605e;
      }

      .cls-3 {
        fill: #fff;
      }
    </style>
  </defs>
  <g id="Calque_1-2" data-name="Calque 1">
    <g id="Ciseaux-_Cisors_-_icon" data-name="Ciseaux- Cisors - icon">
      <path class="cls-1" d="M40.43,8.23s-2.62,8.94-6.96,11.62-9.57,8.17-11.49,12.38c-3.7,4.21-15.57,20.94-15.57,20.94,0,0-2.04,6.64.77,11.62l29.87-40.09s3.09-8.89,5.12-10.06c0,0,3.31-2.58-1.74-6.41Z"/>
      <path class="cls-3" d="M18.06,9.7s2.62,8.94,6.96,11.62,9.57,8.17,11.49,12.38c3.7,4.21,15.57,20.94,15.57,20.94,0,0,2.04,6.64-.77,11.62L21.45,26.17s-3.09-8.89-5.12-10.06c0,0-3.31-2.58,1.74-6.41Z"/>
      <circle class="cls-2" cx="29.34" cy="29.9" r="2.19"/>
      <path class="cls-3" d="M9.26.45C4.14.45,0,4.59,0,9.7s4.14,9.26,9.26,9.26,9.26-4.14,9.26-9.26S14.37.45,9.26.45ZM9.26,13.83c-2.53,0-4.57-2.05-4.57-4.57s2.05-4.57,4.57-4.57,4.57,2.05,4.57,4.57-2.05,4.57-4.57,4.57Z"/>
      <path class="cls-1" d="M49.68,0c-5.11,0-9.26,4.14-9.26,9.26s4.14,9.26,9.26,9.26,9.26-4.14,9.26-9.26S54.79,0,49.68,0ZM49.68,13.57c-2.7,0-4.89-2.19-4.89-4.89s2.19-4.89,4.89-4.89,4.89,2.19,4.89,4.89-2.19,4.89-4.89,4.89Z"/>
    </g>
  </g>
</svg>