<?xml version="1.0" encoding="UTF-8"?>
<svg id="Calque_2" data-name="Calque 2" xmlns="http://www.w3.org/2000/svg" viewBox="0 0 130.25 105.67">
  <defs>
    <style>
      .cls-1 {
        fill: #fdffff;
      }

      .cls-1, .cls-2, .cls-3, .cls-4 {
        stroke-width: 0px;
      }

      .cls-2 {
        fill: #fff;
      }

      .cls-3 {
        fill: #fdd879;
      }

      .cls-4 {
        fill: #47509d;
      }
    </style>
  </defs>
  <g id="Calque_1-2" data-name="Calque 1">
    <g id="Grue">
      <g id="BlocGrue">
        <rect class="cls-1" x="13.98" y="37.64" width="17.91" height="1.7" transform="translate(66.37 49.49) rotate(135)"/>
        <rect class="cls-1" x="13.66" y="37.54" width="17.66" height="1.7" transform="translate(33.73 -4.66) rotate(45)"/>
        <rect class="cls-1" x="14.96" y="30.39" width="14.96" height="2.03"/>
        <rect class="cls-1" x="14.96" y="44.46" width="14.96" height="2.03"/>
        <rect class="cls-1" x="8.49" y="36.86" width="14.96" height="2.03" transform="translate(53.84 21.9) rotate(90)"/>
        <rect class="cls-1" x="21.42" y="36.86" width="14.96" height="2.03" transform="translate(66.77 8.97) rotate(90)"/>
      </g>
      <g id="BlocGrue-2" data-name="BlocGrue">
        <polygon class="cls-1" points="31.76 44.48 42.18 32.66 41.19 31.53 30.77 43.36 31.76 44.48"/>
        <polygon class="cls-1" points="40.75 44.31 30.48 32.64 31.47 31.52 41.74 43.18 40.75 44.31"/>
        <rect class="cls-1" x="29.91" y="30.44" width="12.31" height="1.89"/>
        <rect class="cls-1" x="29.91" y="43.59" width="12.31" height="1.89"/>
        <rect class="cls-1" x="23.76" y="36.59" width="13.97" height="1.67" transform="translate(68.18 6.68) rotate(90)"/>
        <rect class="cls-1" x="34.4" y="36.59" width="13.97" height="1.67" transform="translate(78.82 -3.96) rotate(90)"/>
      </g>
      <g id="BlocGrue-3" data-name="BlocGrue">
        <rect class="cls-1" x="13.98" y="53.54" width="17.91" height="1.7" transform="translate(77.61 76.63) rotate(135)"/>
        <rect class="cls-1" x="13.66" y="53.44" width="17.66" height="1.7" transform="translate(44.97 0) rotate(45)"/>
        <rect class="cls-1" x="14.96" y="46.29" width="14.96" height="2.03"/>
        <rect class="cls-1" x="14.96" y="60.36" width="14.96" height="2.03"/>
        <rect class="cls-1" x="8.49" y="52.76" width="14.96" height="2.03" transform="translate(69.74 37.8) rotate(90)"/>
        <rect class="cls-1" x="21.42" y="52.76" width="14.96" height="2.03" transform="translate(82.67 24.87) rotate(90)"/>
      </g>
      <g id="BlocGrue-4" data-name="BlocGrue">
        <rect class="cls-1" x="14.03" y="69.64" width="17.91" height="1.7" transform="translate(89.08 104.08) rotate(135)"/>
        <rect class="cls-1" x="13.71" y="69.54" width="17.66" height="1.7" transform="translate(56.37 4.68) rotate(45)"/>
        <rect class="cls-1" x="15.01" y="62.39" width="14.96" height="2.03"/>
        <rect class="cls-1" x="15.01" y="76.46" width="14.96" height="2.03"/>
        <rect class="cls-1" x="8.54" y="68.85" width="14.96" height="2.03" transform="translate(85.89 53.85) rotate(90)"/>
        <rect class="cls-1" x="21.47" y="68.85" width="14.96" height="2.03" transform="translate(98.82 40.91) rotate(90)"/>
      </g>
      <g id="BlocGrue-5" data-name="BlocGrue">
        <polygon class="cls-1" points="2.25 44.48 14.91 32.66 13.71 31.53 1.04 43.36 2.25 44.48"/>
        <polygon class="cls-1" points="13.17 44.31 .69 32.64 1.89 31.52 14.38 43.18 13.17 44.31"/>
        <rect class="cls-1" y="30.44" width="14.96" height="1.89"/>
        <rect class="cls-1" y="43.59" width="14.96" height="1.89"/>
        <rect class="cls-1" x="-5.97" y="36.41" width="13.97" height="2.03" transform="translate(38.44 36.41) rotate(90)"/>
        <rect class="cls-1" x="6.96" y="36.41" width="13.97" height="2.03" transform="translate(51.37 23.48) rotate(90)"/>
      </g>
      <g id="BlocGrue-6" data-name="BlocGrue">
        <polygon class="cls-1" points="43.95 43.53 53.66 32.51 52.74 31.46 43.02 42.48 43.95 43.53"/>
        <polygon class="cls-1" points="52.33 43.37 42.75 32.5 43.67 31.45 53.25 42.32 52.33 43.37"/>
        <rect class="cls-1" x="42.22" y="30.44" width="11.47" height="1.76"/>
        <rect class="cls-1" x="42.22" y="42.69" width="11.47" height="1.76"/>
        <rect class="cls-1" x="36.49" y="36.18" width="13.02" height="1.55" transform="translate(79.95 -6.05) rotate(90)"/>
        <rect class="cls-1" x="46.41" y="36.18" width="13.02" height="1.55" transform="translate(89.87 -15.97) rotate(90)"/>
      </g>
      <g id="BlocGrue-7" data-name="BlocGrue">
        <polygon class="cls-1" points="55.51 43.49 65.71 32.46 64.74 31.41 54.54 42.44 55.51 43.49"/>
        <polygon class="cls-1" points="64.31 43.32 54.25 32.45 55.22 31.4 65.28 42.27 64.31 43.32"/>
        <rect class="cls-1" x="53.7" y="30.4" width="12.05" height="1.76"/>
        <rect class="cls-1" x="53.7" y="42.65" width="12.05" height="1.76"/>
        <rect class="cls-1" x="48" y="36.09" width="13.02" height="1.63" transform="translate(91.42 -17.6) rotate(90)"/>
        <rect class="cls-1" x="58.42" y="36.09" width="13.02" height="1.63" transform="translate(101.84 -28.02) rotate(90)"/>
      </g>
      <g id="BlocGrue-8" data-name="BlocGrue">
        <polygon class="cls-1" points="18.62 30.21 27.85 21.9 26.98 21.11 17.74 29.42 18.62 30.21"/>
        <polygon class="cls-1" points="26.59 30.09 17.48 21.9 18.36 21.11 27.46 29.3 26.59 30.09"/>
        <rect class="cls-1" x="16.98" y="20.35" width="10.9" height="1.33"/>
        <rect class="cls-1" x="16.98" y="29.58" width="10.9" height="1.33"/>
        <rect class="cls-1" x="12.82" y="24.52" width="9.81" height="1.48" transform="translate(42.98 7.53) rotate(90)"/>
        <rect class="cls-1" x="22.25" y="24.52" width="9.81" height="1.48" transform="translate(52.4 -1.89) rotate(90)"/>
      </g>
      <g id="BlocGrue-9" data-name="BlocGrue">
        <polygon class="cls-1" points="18.62 19.65 27.85 11.35 26.98 10.56 17.74 18.86 18.62 19.65"/>
        <polygon class="cls-1" points="26.59 19.53 17.48 11.34 18.36 10.55 27.46 18.74 26.59 19.53"/>
        <rect class="cls-1" x="16.98" y="9.79" width="10.9" height="1.33"/>
        <rect class="cls-1" x="16.98" y="19.02" width="10.9" height="1.33"/>
        <rect class="cls-1" x="12.82" y="13.96" width="9.81" height="1.48" transform="translate(32.42 -3.03) rotate(90)"/>
        <rect class="cls-1" x="22.25" y="13.96" width="9.81" height="1.48" transform="translate(41.85 -12.45) rotate(90)"/>
      </g>
      <g id="BlocGrue-10" data-name="BlocGrue">
        <polygon class="cls-1" points="18.66 9.14 27.89 1.44 27.01 .71 17.78 8.41 18.66 9.14"/>
        <polygon class="cls-1" points="26.62 9.03 17.52 1.43 18.4 .7 27.5 8.3 26.62 9.03"/>
        <rect class="cls-1" x="17.02" width="10.9" height="1.23"/>
        <rect class="cls-1" x="17.02" y="8.56" width="10.9" height="1.23"/>
        <rect class="cls-1" x="13.21" y="3.81" width="9.1" height="1.48" transform="translate(22.31 -13.21) rotate(90)"/>
        <rect class="cls-1" x="22.64" y="3.81" width="9.1" height="1.48" transform="translate(31.74 -22.64) rotate(90)"/>
      </g>
      <g id="BlocGrue-11" data-name="BlocGrue">
        <polygon class="cls-1" points="67.56 42.91 77.8 32.39 76.83 31.39 66.59 41.91 67.56 42.91"/>
        <polygon class="cls-1" points="76.39 42.75 66.3 32.38 67.27 31.38 77.37 41.75 76.39 42.75"/>
        <rect class="cls-1" x="65.75" y="30.42" width="12.09" height="1.68"/>
        <rect class="cls-1" x="65.75" y="42.11" width="12.09" height="1.68"/>
        <rect class="cls-1" x="60.35" y="35.82" width="12.43" height="1.64" transform="translate(103.2 -29.93) rotate(90)"/>
        <rect class="cls-1" x="70.8" y="35.82" width="12.43" height="1.64" transform="translate(113.65 -40.38) rotate(90)"/>
      </g>
      <g id="BlocGrue-12" data-name="BlocGrue">
        <polygon class="cls-1" points="79.65 41.6 89.89 32.22 88.91 31.32 78.68 40.71 79.65 41.6"/>
        <polygon class="cls-1" points="88.48 41.46 78.39 32.21 79.36 31.32 89.46 40.57 88.48 41.46"/>
        <rect class="cls-1" x="77.84" y="30.46" width="12.09" height="1.5"/>
        <rect class="cls-1" x="77.84" y="40.89" width="12.09" height="1.5"/>
        <rect class="cls-1" x="73.11" y="35.19" width="11.09" height="1.64" transform="translate(114.66 -42.65) rotate(90)"/>
        <rect class="cls-1" x="83.56" y="35.19" width="11.09" height="1.64" transform="translate(125.11 -53.1) rotate(90)"/>
      </g>
      <g id="BlocGrue-13" data-name="BlocGrue">
        <polygon class="cls-1" points="91.4 41.6 99.95 32.22 99.13 31.32 90.59 40.71 91.4 41.6"/>
        <polygon class="cls-1" points="98.77 41.46 90.35 32.21 91.16 31.32 99.59 40.57 98.77 41.46"/>
        <rect class="cls-1" x="89.89" y="30.46" width="10.09" height="1.5"/>
        <rect class="cls-1" x="89.89" y="40.89" width="10.09" height="1.5"/>
        <rect class="cls-1" x="85.03" y="35.32" width="11.09" height="1.37" transform="translate(126.57 -54.57) rotate(90)"/>
        <rect class="cls-1" x="93.75" y="35.32" width="11.09" height="1.37" transform="translate(135.3 -63.29) rotate(90)"/>
      </g>
      <g id="BlocGrue-14" data-name="BlocGrue">
        <polygon class="cls-1" points="101.49 40.73 110.04 32.08 109.23 31.26 100.68 39.91 101.49 40.73"/>
        <polygon class="cls-1" points="108.87 40.61 100.44 32.07 101.25 31.25 109.68 39.78 108.87 40.61"/>
        <rect class="cls-1" x="99.98" y="30.46" width="10.09" height="1.39"/>
        <rect class="cls-1" x="99.98" y="40.08" width="10.09" height="1.39"/>
        <rect class="cls-1" x="95.55" y="34.89" width="10.22" height="1.37" transform="translate(136.23 -65.09) rotate(90)"/>
        <rect class="cls-1" x="104.28" y="34.89" width="10.22" height="1.37" transform="translate(144.96 -73.81) rotate(90)"/>
      </g>
      <g id="BlocGrue-15" data-name="BlocGrue">
        <polygon class="cls-1" points="111.59 39.78 120.13 31.93 119.32 31.18 110.77 39.03 111.59 39.78"/>
        <polygon class="cls-1" points="118.96 39.66 110.53 31.92 111.34 31.18 119.77 38.91 118.96 39.66"/>
        <rect class="cls-1" x="110.07" y="30.46" width="10.09" height="1.26"/>
        <rect class="cls-1" x="110.07" y="39.18" width="10.09" height="1.26"/>
        <rect class="cls-1" x="106.12" y="34.41" width="9.27" height="1.37" transform="translate(145.85 -75.66) rotate(90)"/>
        <rect class="cls-1" x="114.84" y="34.41" width="9.27" height="1.37" transform="translate(154.57 -84.38) rotate(90)"/>
      </g>
      <g id="BlocGrue-16" data-name="BlocGrue">
        <polygon class="cls-1" points="121.68 39.81 130.22 31.96 129.41 31.21 120.86 39.06 121.68 39.81"/>
        <polygon class="cls-1" points="129.05 39.69 120.62 31.95 121.44 31.21 129.86 38.94 129.05 39.69"/>
        <rect class="cls-1" x="120.16" y="30.49" width="10.09" height="1.26"/>
        <rect class="cls-1" x="120.16" y="39.21" width="10.09" height="1.26"/>
        <rect class="cls-1" x="116.21" y="34.44" width="9.27" height="1.37" transform="translate(155.97 -85.72) rotate(90)"/>
        <rect class="cls-1" x="124.94" y="34.44" width="9.27" height="1.37" transform="translate(164.7 -94.44) rotate(90)"/>
      </g>
      <g id="BlocGrue-17" data-name="BlocGrue">
        <polygon class="cls-1" points="121.62 39.8 129.83 31.93 129.05 31.19 120.84 39.06 121.62 39.8"/>
        <polygon class="cls-1" points="128.7 39.69 120.61 31.93 121.39 31.18 129.48 38.94 128.7 39.69"/>
        <rect class="cls-1" x="120.16" y="30.46" width="9.7" height="1.26"/>
        <rect class="cls-1" x="120.16" y="39.21" width="9.7" height="1.26"/>
        <rect class="cls-1" x="116.17" y="34.45" width="9.3" height="1.31" transform="translate(155.93 -85.71) rotate(90)"/>
        <rect class="cls-1" x="124.56" y="34.45" width="9.3" height="1.31" transform="translate(164.31 -94.09) rotate(90)"/>
      </g>
      <rect class="cls-3" x="65.99" y="37.45" width="15.02" height="16.98"/>
      <rect class="cls-4" x="68.91" y="48.44" width="8.01" height="4"/>
      <rect class="cls-4" x="70.95" y="40.39" width="4.93" height="4"/>
      <rect class="cls-4" x="69.83" y="72.32" width="7.09" height="5.06"/>
      <rect class="cls-1" x="69.83" y="54.43" width="2.07" height="18.73"/>
      <rect class="cls-1" x="74.84" y="54.43" width="2.07" height="18.73"/>
      <polygon class="cls-2" points="71.9 77.38 71.9 80.45 72.8 80.45 73.82 80.45 73.82 81.44 74.92 81.44 74.92 84.42 72.93 84.42 72.89 83.46 71.9 83.43 71.9 82.47 70.91 82.44 70.91 81.45 69.83 81.44 69.83 82.39 68.9 82.44 68.9 84.42 69.83 84.42 69.83 85.42 70.9 85.42 70.88 86.43 75.89 86.43 75.89 85.44 76.91 85.46 76.91 84.44 77.92 84.45 77.92 81.44 76.91 81.42 76.91 80.46 75.91 80.45 75.89 79.42 74.98 79.39 74.98 78.47 73.9 78.39 73.9 77.38 71.9 77.38"/>
      <rect class="cls-1" x="77.74" y="-36.97" width="1.83" height="106.92" transform="translate(116.39 -54.47) rotate(106.17)"/>
      <g id="BlocGrue-18" data-name="BlocGrue">
        <polygon class="cls-1" points="17.25 85.67 29.92 79.62 28.71 79.04 16.05 85.1 17.25 85.67"/>
        <polygon class="cls-1" points="28.18 85.58 15.69 79.61 16.9 79.04 29.39 85.01 28.18 85.58"/>
        <rect class="cls-1" x="15.01" y="78.49" width="14.96" height=".97"/>
        <rect class="cls-1" x="15.01" y="85.21" width="14.96" height=".97"/>
        <rect class="cls-1" x="12.45" y="81.05" width="7.15" height="2.03" transform="translate(98.08 66.04) rotate(90)"/>
        <rect class="cls-1" x="25.38" y="81.05" width="7.15" height="2.03" transform="translate(111.01 53.11) rotate(90)"/>
      </g>
      <g id="BlocGrue-19" data-name="BlocGrue">
        <polygon class="cls-1" points="17.25 95.28 29.92 87.61 28.71 86.89 16.05 94.55 17.25 95.28"/>
        <polygon class="cls-1" points="28.18 95.17 15.69 87.61 16.9 86.88 29.39 94.44 28.18 95.17"/>
        <rect class="cls-1" x="15.01" y="86.18" width="14.96" height="1.23"/>
        <rect class="cls-1" x="15.01" y="94.7" width="14.96" height="1.23"/>
        <rect class="cls-1" x="11.5" y="89.69" width="9.05" height="2.03" transform="translate(106.73 74.68) rotate(90)"/>
        <rect class="cls-1" x="24.43" y="89.69" width="9.05" height="2.03" transform="translate(119.66 61.75) rotate(90)"/>
      </g>
      <rect class="cls-1" x="27.92" y="83.26" width="9.78" height=".95" transform="translate(59.84 -2.04) rotate(38.89)"/>
      <rect class="cls-1" x="27.13" y="86.46" width="9.78" height=".95"/>
      <rect class="cls-1" x="27.63" y="95.52" width="17.61" height=".95" transform="translate(132.42 59.56) rotate(90)"/>
      <g id="BlocGrue-20" data-name="BlocGrue">
        <polygon class="cls-1" points="17.25 105.02 29.92 97.36 28.71 96.63 16.05 104.3 17.25 105.02"/>
        <polygon class="cls-1" points="28.18 104.91 15.69 97.35 16.9 96.62 29.39 104.18 28.18 104.91"/>
        <rect class="cls-1" x="15.01" y="95.92" width="14.96" height="1.23"/>
        <rect class="cls-1" x="15.01" y="104.44" width="14.96" height="1.23"/>
        <rect class="cls-1" x="11.5" y="99.44" width="9.05" height="2.03" transform="translate(116.47 84.43) rotate(90)"/>
        <rect class="cls-1" x="24.43" y="99.44" width="9.05" height="2.03" transform="translate(129.41 71.5) rotate(90)"/>
      </g>
    </g>
  </g>
</svg>