<?xml version="1.0" encoding="UTF-8"?>
<svg id="Calque_2" data-name="Calque 2" xmlns="http://www.w3.org/2000/svg" viewBox="0 0 284.6 246.98">
  <defs>
    <style>
      .cls-1 {
        fill: #be6a7f;
      }

      .cls-1, .cls-2, .cls-3, .cls-4, .cls-5, .cls-6, .cls-7, .cls-8, .cls-9, .cls-10, .cls-11, .cls-12, .cls-13, .cls-14, .cls-15, .cls-16, .cls-17, .cls-18 {
        stroke-width: 0px;
      }

      .cls-2 {
        fill: #000;
      }

      .cls-3 {
        fill: #808b8d;
      }

      .cls-4 {
        fill: #6ba174;
      }

      .cls-5 {
        fill: #bbc2ca;
      }

      .cls-6 {
        fill: #f7f6eb;
      }

      .cls-7 {
        fill: #6a7474;
      }

      .cls-8 {
        fill: #f0dbc9;
      }

      .cls-9 {
        fill: #bbc2c8;
      }

      .cls-10 {
        fill: #748283;
      }

      .cls-11 {
        fill: #6ac8e7;
      }

      .cls-12 {
        fill: #bfc4cb;
      }

      .cls-13 {
        fill: #d74f2b;
      }

      .cls-14 {
        fill: #7f8c8d;
      }

      .cls-15 {
        fill: #b9412a;
      }

      .cls-16 {
        fill: #dfc7aa;
      }

      .cls-17 {
        fill: #7d8b8e;
      }

      .cls-18 {
        fill: #e6e5ea;
      }
    </style>
  </defs>
  <g id="Calque_1-2" data-name="Calque 1">
    <g>
      <path class="cls-7" d="M271.23,0H13.36C5.98,0,0,5.98,0,13.36v169.36c0,7.38,5.98,13.36,13.36,13.36h257.87c7.38,0,13.36-5.98,13.36-13.36V13.36c0-7.38-5.98-13.36-13.36-13.36ZM272.17,180.43H10.72V15.32h261.45v165.11Z"/>
      <path class="cls-3" d="M10.72,180.43h11.36V32.83c0-1.84,1.5-3.34,3.34-3.34h228.51c1.84,0,3.34,1.5,3.34,3.34v147.6h14.89V15.32H10.72v165.11Z"/>
      <path class="cls-6" d="M22.09,44.55v135.87h235.19V44.55H22.09ZM170.51,167.14c0,1.54-1.26,2.81-2.81,2.81h-56.04c-1.54,0-2.81-1.26-2.81-2.81v-2.04c0-1.54,1.26-2.81,2.81-2.81h56.04c1.54,0,2.81,1.26,2.81,2.81v2.04ZM157.5,144.19c-5.39,2.66-11.44,4.15-17.82,4.15s-12.55-1.52-17.98-4.23c-13.74-6.85-23.21-21.3-23.21-38.03,0-23.34,18.44-42.26,41.19-42.26s41.19,18.92,41.19,42.26c0,16.79-9.54,31.29-23.37,38.11Z"/>
      <path class="cls-5" d="M257.28,32.83c0-1.84-1.5-3.34-3.34-3.34H25.43c-1.84,0-3.34,1.5-3.34,3.34v11.72h235.19v-11.72ZM26.4,39.21c-1.21,0-2.19-.98-2.19-2.19s.98-2.19,2.19-2.19,2.19.98,2.19,2.19-.98,2.19-2.19,2.19ZM34.64,39.21c-1.21,0-2.19-.98-2.19-2.19s.98-2.19,2.19-2.19,2.19.98,2.19,2.19-.98,2.19-2.19,2.19ZM42.38,39.21c-1.21,0-2.19-.98-2.19-2.19s.98-2.19,2.19-2.19,2.19.98,2.19,2.19-.98,2.19-2.19,2.19ZM239.91,38.83c0,.28-.22.5-.5.5H54.46c-.28,0-.5-.22-.5-.5v-3.62c0-.28.22-.5.5-.5h184.96c.28,0,.5.22.5.5v3.62Z"/>
      <path class="cls-1" d="M26.4,34.83c-1.21,0-2.19.98-2.19,2.19s.98,2.19,2.19,2.19,2.19-.98,2.19-2.19-.98-2.19-2.19-2.19Z"/>
      <path class="cls-16" d="M34.64,34.83c-1.21,0-2.19.98-2.19,2.19s.98,2.19,2.19,2.19,2.19-.98,2.19-2.19-.98-2.19-2.19-2.19Z"/>
      <path class="cls-4" d="M42.38,34.83c-1.21,0-2.19.98-2.19,2.19s.98,2.19,2.19,2.19,2.19-.98,2.19-2.19-.98-2.19-2.19-2.19Z"/>
      <path class="cls-12" d="M111.66,162.29c-1.54,0-2.81,1.26-2.81,2.81v2.04c0,1.54,1.26,2.81,2.81,2.81h47.43v-7.66h-47.43Z"/>
      <path class="cls-17" d="M167.7,162.29h-8.62v7.66h8.62c1.54,0,2.81-1.26,2.81-2.81v-2.04c0-1.54-1.26-2.81-2.81-2.81Z"/>
      <rect class="cls-18" x="53.96" y="34.71" width="185.96" height="4.62" rx=".5" ry=".5"/>
      <path class="cls-14" d="M187.14,201.51h-95.79l2.1-5.43-10.38,26.89s-3.4,19.06,13.28,24h85.45s19.91-5.28,14.47-24.17c-3.34-7.82-7.06-17.27-9.12-22.58h0v1.28Z"/>
      <polygon class="cls-10" points="91.35 201.51 187.14 201.51 187.14 200.24 187.13 200.23 185.53 196.09 93.45 196.09 91.35 201.51"/>
      <polygon class="cls-9" points="139.68 79.61 139.68 79.61 139.67 79.61 139.68 79.61"/>
      <path class="cls-9" d="M139.68,79.61s0,0,0,0c0,0,0,0,0,0,0,0,0,0-.01,0Z"/>
      <path class="cls-9" d="M135.09,80.01h0c.1-.02.19-.04.29-.05-.1.02-.19.03-.29.05Z"/>
      <path class="cls-9" d="M139.68,63.83c-22.75,0-41.19,18.92-41.19,42.26,0,16.72,9.47,31.18,23.21,38.03v-.75s1.51-8.94,12.34-8.94v-2.47c-9.5-2.06-17.09-9.22-19.78-18.46-.47.18-.98.29-1.53.29-2.14,0-3.88-1.59-3.88-3.55s1.74-3.55,3.88-3.55c.17,0,.32.03.48.04,0-.21-.02-.42-.02-.63,0-.09,0-.17,0-.26,0,0,0,0,0,0-.01-.63.04-1.37.11-2.06.04-.37.08-.72.12-1.04.04-.28.07-.52.1-.72.05-.32.08-.53.08-.53l.06-.31c.04-.22.09-.44.13-.66l.06-.31.02-.03c.44-1.92,1.09-3.76,1.92-5.5.03-.07.07-.14.1-.21.27-.55.55-1.09.86-1.62,0,0,.01-.02.02-.03.38-.65.78-1.28,1.21-1.89,0-.01.02-.02.03-.04.52-.74,1.09-1.45,1.68-2.13.87-1,1.81-1.95,2.82-2.81.03-.03.06-.06.1-.08.54-.45,1.09-.88,1.66-1.29.06-.04.12-.09.19-.13.57-.4,1.15-.78,1.74-1.13.06-.04.13-.07.19-.11.61-.36,1.24-.7,1.89-1,.02,0,.03-.01.05-.02.07-.03.13-.06.2-.09.02-6.37,5.19-11.52,11.56-11.52s11.56,5.17,11.56,11.56c0,.12-.01.23-.02.34.32.16.65.33.96.51.07.04.14.08.21.12,1.21.69,2.37,1.48,3.45,2.35.03.02.05.04.08.06.54.44,1.06.89,1.56,1.37.04.04.08.07.11.11.97.93,1.85,1.93,2.67,3,.5.65.98,1.32,1.42,2.02,0,0,0,0,0,0,1.56,2.48,2.72,5.24,3.39,8.18.29,1.26.48,2.56.59,3.88l.09.57-.04-.03c.03.5.04,1,.04,1.5,0,.19-.01.37-.01.55.08,0,.16-.02.24-.02,2.14,0,3.88,1.59,3.88,3.55s-1.74,3.55-3.88,3.55c-.45,0-.88-.08-1.29-.22-2.63,9.03-9.95,16.06-19.14,18.3v2.62s10.9.51,11.55,9.76c13.83-6.82,23.37-21.32,23.37-38.11,0-23.34-18.44-42.26-41.19-42.26Z"/>
      <path class="cls-8" d="M158,86.97c.97.93,1.85,1.93,2.67,3-.82-1.06-1.71-2.07-2.67-3Z"/>
      <path class="cls-8" d="M142.73,79.79c-.12-.01-.25-.02-.38-.03.49.05.98.12,1.47.19-.26-.04-.53-.09-.79-.12-.1-.01-.2-.03-.3-.04Z"/>
      <path class="cls-8" d="M151.62,82.47c.32.16.65.32.97.49-.32-.18-.64-.35-.96-.51,0,0,0,.01,0,.02h0Z"/>
      <path class="cls-8" d="M141.19,79.65c-.5-.03-1-.05-1.5-.05,0,0,0,0,0,0,.69,0,1.37.04,2.04.09-.06,0-.11-.01-.17-.02-.12,0-.24-.02-.37-.03Z"/>
      <path class="cls-8" d="M165.49,100.17l.59,3.88c-.1-1.32-.3-2.62-.59-3.88Z"/>
      <path class="cls-8" d="M162.09,91.99c1.56,2.48,2.72,5.24,3.39,8.18-.67-2.94-1.83-5.7-3.39-8.18Z"/>
      <path class="cls-8" d="M136.45,79.81c-.36.04-.71.09-1.07.15-.1.02-.19.03-.29.05.65-.11,1.3-.2,1.97-.27-.08,0-.16.01-.25.02-.12.01-.24.03-.36.05Z"/>
      <path class="cls-8" d="M133.76,80.28c-.25.06-.5.13-.75.19.51-.13,1.02-.25,1.53-.35-.2.04-.4.07-.59.12-.06.01-.13.03-.19.04Z"/>
      <path class="cls-8" d="M137.87,79.67c-.11,0-.23.02-.34.03.33-.03.66-.05.99-.06-.09,0-.18,0-.27,0-.12,0-.25.02-.37.03Z"/>
      <path class="cls-8" d="M115.8,94.67c-.83,1.74-1.48,3.58-1.92,5.5l.03-.06c.44-1.9,1.07-3.72,1.89-5.44Z"/>
      <path class="cls-8" d="M122.51,85.94c-1.01.86-1.95,1.81-2.82,2.81.87-1,1.81-1.95,2.82-2.81Z"/>
      <path class="cls-8" d="M128.52,82.07c-.07.03-.13.06-.2.09.06-.03.13-.05.2-.08,0,0,0,0,0,0Z"/>
      <path class="cls-15" d="M128.52,82.08c.5-.23,1-.44,1.51-.64.26-.1.52-.2.78-.29.52-.18,1.04-.36,1.57-.51.02,0,.05-.01.07-.02.02,0,.05-.01.07-.02.16-.04.32-.08.48-.12.25-.07.5-.13.75-.19.06-.01.13-.03.19-.04.2-.04.39-.08.59-.12.18-.04.36-.08.55-.11,0,0,0,0,0,0,.1-.02.19-.04.29-.05.35-.06.71-.11,1.07-.15.12-.01.24-.03.36-.05.08,0,.16-.01.25-.02.16-.02.31-.03.47-.04.11,0,.23-.02.34-.03.12,0,.25-.02.37-.03.09,0,.18,0,.27,0,.38-.02.76-.03,1.14-.03,0,0,.01,0,.02,0,0,0,0,0,0,0,0,0,0,0,.01,0,.5,0,1,.02,1.5.05.12,0,.24.02.37.03.06,0,.11.01.17.02.21.02.42.04.63.06.13.01.25.02.38.03.1.01.2.03.3.04.27.03.53.08.79.12.17.03.35.05.53.08.03,0,.06.01.1.02.1.02.19.04.29.06.22.04.44.1.67.15.22.05.44.09.66.15.37.09.74.2,1.1.3.18.05.36.11.54.17,1.35.43,2.66.97,3.91,1.6h0s0-.01,0-.02c0-.11.02-.23.02-.34,0-6.38-5.17-11.56-11.56-11.56s-11.53,5.15-11.56,11.52c0,0,0,0,0,0,0,0,0,0,0,0Z"/>
      <path class="cls-13" d="M149.91,102l3.57-6.43,12.63,9.01.04.03-.09-.57-.59-3.88c-.67-2.94-1.83-5.7-3.39-8.18,0,0,0,0,0,0-.44-.7-.92-1.37-1.42-2.02-.82-1.06-1.71-2.07-2.67-3-.04-.04-.07-.07-.11-.11-.5-.48-1.02-.93-1.56-1.37-.03-.02-.05-.04-.08-.06-1.08-.87-2.24-1.66-3.45-2.35-.07-.04-.14-.08-.21-.12-.31-.18-.64-.33-.97-.49-1.25-.63-2.56-1.17-3.91-1.6-.18-.06-.36-.11-.54-.17-.36-.11-.73-.21-1.1-.3-.22-.05-.44-.1-.66-.15-.22-.05-.44-.1-.67-.15-.1-.02-.19-.04-.29-.06-.03,0-.06-.01-.1-.02-.17-.03-.35-.05-.53-.08-.49-.08-.97-.14-1.47-.19-.21-.02-.42-.04-.63-.06-.68-.05-1.35-.09-2.04-.09,0,0,0,0,0,0,0,0,0,0,0,0,0,0,0,0,0,0,0,0-.01,0-.02,0-.38,0-.76.02-1.14.03-.33.02-.66.04-.99.06-.16.01-.32.02-.47.04-.66.07-1.32.15-1.97.27h0s0,0,0,0c-.18.03-.36.07-.55.11-.52.1-1.03.22-1.53.35-.16.04-.32.08-.48.12-.02,0-.05.01-.07.02-.02,0-.05.01-.07.02-.53.15-1.05.33-1.57.51-.26.09-.52.19-.78.29-.51.2-1.02.41-1.51.64,0,0,0,0,0,0-.06.03-.13.05-.2.08-.02,0-.03.01-.05.02-.64.31-1.27.65-1.89,1-.06.04-.13.07-.19.11-.6.35-1.18.73-1.74,1.13-.06.04-.13.09-.19.13-.57.41-1.13.84-1.66,1.29-.03.03-.06.06-.1.08-1.01.86-1.95,1.81-2.82,2.81-.59.68-1.16,1.39-1.68,2.13,0,.01-.02.02-.03.04-.43.61-.83,1.24-1.21,1.89,0,0-.01.02-.02.03-.31.53-.59,1.07-.86,1.62-.03.07-.07.14-.1.21-.82,1.72-1.45,3.54-1.89,5.44l-.03.06-.02.03-.06.31c-.05.22-.09.44-.13.66l-.06.31s-.03.21-.08.53c-.03.2-.06.44-.1.72-.04.32-.08.67-.12,1.04-.07.69-.12,1.43-.11,2.06,0,0,0,0,0,0,.14-.02,27.03-4.68,36.71-3.83Z"/>
      <path class="cls-2" d="M126.9,106.98c-.9,0-1.62.73-1.62,1.62s.73,1.62,1.62,1.62,1.62-.73,1.62-1.62-.73-1.62-1.62-1.62Z"/>
      <path class="cls-2" d="M153.26,109.33c.9,0,1.62-.73,1.62-1.62s-.73-1.62-1.62-1.62-1.62.73-1.62,1.62.73,1.62,1.62,1.62Z"/>
      <path class="cls-2" d="M139.54,119.32h-5.5c.34,4.83,5.46,5.02,5.5,5.02h0s0,0,0,0,0,0,0,0h0s5.16-.19,5.5-5.02h-5.51Z"/>
      <path class="cls-8" d="M145.96,131.81c9.19-2.24,16.51-9.27,19.14-18.3.4.13.83.22,1.29.22,2.14,0,3.88-1.59,3.88-3.55s-1.74-3.55-3.88-3.55c-.08,0-.16.02-.24.02,0-.18.01-.37.01-.55,0-.5-.02-1-.04-1.5l-12.63-9.01-3.57,6.43c-9.68-.85-36.57,3.8-36.71,3.83,0,.09,0,.17,0,.26,0,.21.01.42.02.63-.16-.02-.32-.04-.48-.04-2.14,0-3.88,1.59-3.88,3.55s1.74,3.55,3.88,3.55c.54,0,1.06-.1,1.53-.29,2.69,9.25,10.28,16.4,19.78,18.46v2.47h11.91v-2.62ZM153.26,106.09c.9,0,1.62.73,1.62,1.62s-.73,1.62-1.62,1.62-1.62-.73-1.62-1.62.73-1.62,1.62-1.62ZM126.9,110.23c-.9,0-1.62-.73-1.62-1.62s.73-1.62,1.62-1.62,1.62.73,1.62,1.62-.73,1.62-1.62,1.62ZM139.55,124.34h0s0,0,0,0,0,0,0,0h0s-5.16-.19-5.5-5.02h11.01c-.34,4.83-5.46,5.02-5.5,5.02Z"/>
      <path class="cls-11" d="M145.96,134.43h-11.91c-10.83,0-12.34,8.94-12.34,8.94v.75c5.43,2.71,11.53,4.23,17.98,4.23s12.43-1.49,17.82-4.15c-.65-9.25-11.55-9.76-11.55-9.76Z"/>
    </g>
  </g>
</svg>