<?xml version="1.0" encoding="UTF-8"?>
<svg id="Calque_2" data-name="Calque 2" xmlns="http://www.w3.org/2000/svg" viewBox="0 0 284.6 246.98">
  <defs>
    <style>
      .cls-1 {
        fill: #be6a7f;
      }

      .cls-1, .cls-2, .cls-3, .cls-4, .cls-5, .cls-6, .cls-7, .cls-8, .cls-9, .cls-10, .cls-11, .cls-12, .cls-13, .cls-14, .cls-15, .cls-16, .cls-17, .cls-18 {
        stroke-width: 0px;
      }

      .cls-2 {
        fill: #000;
      }

      .cls-3 {
        fill: #808b8d;
      }

      .cls-4 {
        fill: #6ba174;
      }

      .cls-5 {
        fill: #bbc2ca;
      }

      .cls-6 {
        fill: #f7f6eb;
      }

      .cls-7 {
        fill: #6a7474;
      }

      .cls-8 {
        fill: #f0dbc9;
      }

      .cls-9 {
        fill: #bbc2c8;
      }

      .cls-10 {
        fill: #748283;
      }

      .cls-11 {
        fill: #6ac8e7;
      }

      .cls-12 {
        fill: #bfc4cb;
      }

      .cls-13 {
        fill: #d74f2b;
      }

      .cls-14 {
        fill: #7f8c8d;
      }

      .cls-15 {
        fill: #b9412a;
      }

      .cls-16 {
        fill: #dfc7aa;
      }

      .cls-17 {
        fill: #7d8b8e;
      }

      .cls-18 {
        fill: #e6e5ea;
      }
    </style>
  </defs>
  <g id="Calque_1-2" data-name="Calque 1">
    <g id="Ecran1">
      <rect class="cls-7" width="284.6" height="196.09" rx="13.36" ry="13.36"/>
      <rect class="cls-3" x="10.72" y="15.32" width="261.45" height="165.11"/>
      <rect class="cls-6" x="22.09" y="44.55" width="235.19" height="135.87"/>
      <path class="cls-5" d="M25.43,29.49h228.51c1.84,0,3.34,1.5,3.34,3.34v11.72H22.09v-11.72c0-1.84,1.5-3.34,3.34-3.34Z"/>
      <circle class="cls-1" cx="26.4" cy="37.02" r="2.19"/>
      <circle class="cls-16" cx="34.64" cy="37.02" r="2.19"/>
      <circle class="cls-4" cx="42.38" cy="37.02" r="2.19"/>
      <rect class="cls-12" x="108.85" y="162.29" width="61.66" height="7.66" rx="2.81" ry="2.81"/>
      <path class="cls-17" d="M159.09,162.29h8.62c1.55,0,2.81,1.26,2.81,2.81v2.04c0,1.55-1.26,2.81-2.81,2.81h-8.62v-7.66h0Z"/>
      <rect class="cls-18" x="53.96" y="34.71" width="185.96" height="4.62" rx=".5" ry=".5"/>
      <path class="cls-14" d="M93.45,196.09l-10.38,26.89s-3.4,19.06,13.28,24h85.45s19.91-5.28,14.47-24.17c-4.94-11.57-10.72-26.72-10.72-26.72h-92.09Z"/>
      <polygon class="cls-10" points="91.35 201.51 93.45 196.09 185.53 196.09 187.14 200.24 187.14 201.51 91.35 201.51"/>
      <g>
        <path class="cls-9" d="M141.19,79.65c.12,0,.24.02.37.03-.12,0-.24-.02-.37-.03Z"/>
        <path class="cls-9" d="M139.66,79.61s.01,0,.02,0c0,0,0,0,0,0,0,0-.02,0-.02,0Z"/>
        <path class="cls-9" d="M137.87,79.67c.12,0,.25-.02.37-.03-.12,0-.25.02-.37.03Z"/>
        <path class="cls-9" d="M136.45,79.81c.12-.01.24-.03.36-.05-.12.01-.24.03-.36.05Z"/>
        <path class="cls-9" d="M139.68,79.61s0,0,0,0c0,0,0,0,0,0,0,0,0,0-.01,0Z"/>
        <path class="cls-9" d="M133.76,80.28c.06-.01.13-.03.19-.04-.06.01-.13.03-.19.04Z"/>
        <path class="cls-9" d="M135.09,80.01h0c.1-.02.19-.04.29-.05-.1.02-.19.03-.29.05Z"/>
        <path class="cls-9" d="M142.73,79.79c.1.01.2.03.3.04-.1-.01-.2-.03-.3-.04Z"/>
        <path class="cls-9" d="M180.87,106.09c0-23.34-18.44-42.26-41.19-42.26s-41.19,18.92-41.19,42.26c0,16.72,9.47,31.18,23.21,38.03v-.75s1.51-8.94,12.34-8.94v-2.47c-9.5-2.06-17.09-9.22-19.78-18.46-.47.18-.98.29-1.53.29-2.14,0-3.88-1.59-3.88-3.55s1.74-3.55,3.88-3.55c.17,0,.32.03.48.04,0-.21-.02-.42-.02-.63,0-.09,0-.17,0-.26,0,0,0,0,0,0-.01-.63.04-1.37.11-2.06.34-3.96,1.56-7.67,3.45-10.93,0,0,.01-.02.02-.03.38-.65.78-1.28,1.21-1.89,0-.01.02-.02.03-.04,1.29-1.83,2.8-3.49,4.5-4.94.03-.03.06-.06.1-.08.54-.45,1.09-.88,1.66-1.29.06-.04.12-.09.19-.13.57-.4,1.15-.78,1.74-1.13.06-.04.13-.07.19-.11.61-.36,1.24-.7,1.89-1,.02,0,.03-.01.05-.02.07-.03.13-.06.2-.09.02-6.37,5.19-11.52,11.56-11.52s11.56,5.17,11.56,11.56c0,.12-.01.23-.02.34.32.16.65.33.96.51.07.04.14.08.21.12,1.21.69,2.37,1.48,3.45,2.35.03.02.05.04.08.06.54.44,1.06.89,1.56,1.37.04.04.08.07.11.11,1.56,1.5,2.94,3.18,4.1,5.02,0,0,0,0,0,0,1.56,2.48,2.72,5.24,3.39,8.18h0c.29,1.26.48,2.56.59,3.88l.09.57-.04-.03c.03.5.04,1,.04,1.5,0,.19-.01.37-.01.55.08,0,.16-.02.24-.02,2.14,0,3.88,1.59,3.88,3.55s-1.74,3.55-3.88,3.55c-.45,0-.88-.08-1.29-.22-2.63,9.03-9.95,16.06-19.14,18.3v2.62s10.9.51,11.55,9.76c13.83-6.82,23.37-21.32,23.37-38.11Z"/>
        <path class="cls-8" d="M146.07,80.4c-.44-.11-.88-.21-1.33-.29.45.09.89.18,1.33.29Z"/>
        <path class="cls-8" d="M158,86.97c1.56,1.5,2.94,3.18,4.1,5.02-1.16-1.84-2.53-3.52-4.1-5.02Z"/>
        <path class="cls-8" d="M132.39,80.63c-.53.15-1.05.33-1.57.51.52-.18,1.04-.36,1.57-.51Z"/>
        <path class="cls-8" d="M142.73,79.79c-.12-.01-.25-.02-.38-.03.49.05.98.12,1.47.19-.26-.04-.53-.09-.79-.12-.1-.01-.2-.03-.3-.04Z"/>
        <path class="cls-8" d="M151.62,82.47c.32.16.65.32.97.49-.32-.18-.64-.35-.96-.51,0,0,0,.01,0,.02h0Z"/>
        <path class="cls-8" d="M141.19,79.65c-.5-.03-1-.05-1.5-.05,0,0,0,0,0,0,.69,0,1.37.04,2.04.09-.06,0-.11-.01-.17-.02-.12,0-.24-.02-.37-.03Z"/>
        <path class="cls-8" d="M130.04,81.43c-.51.2-1.02.41-1.51.64.5-.23,1-.44,1.51-.64Z"/>
        <path class="cls-8" d="M147.71,80.87c-.18-.06-.35-.11-.53-.17.18.05.36.11.53.17Z"/>
        <path class="cls-8" d="M165.49,100.17l.59,3.88c-.1-1.32-.3-2.62-.59-3.88Z"/>
        <path class="cls-8" d="M156.32,85.5c.54.44,1.06.89,1.56,1.37-.5-.48-1.02-.93-1.56-1.37Z"/>
        <path class="cls-8" d="M162.09,91.99c1.56,2.48,2.72,5.24,3.39,8.18-.67-2.94-1.83-5.7-3.39-8.18Z"/>
        <path class="cls-8" d="M124.46,84.43c.57-.4,1.15-.78,1.74-1.13-.6.35-1.18.73-1.74,1.13Z"/>
        <path class="cls-8" d="M126.39,83.19c.61-.36,1.24-.7,1.89-1-.64.31-1.27.65-1.89,1Z"/>
        <path class="cls-8" d="M122.61,85.85c.54-.45,1.09-.88,1.66-1.29-.57.41-1.13.84-1.66,1.29Z"/>
        <path class="cls-8" d="M145.96,130.27v1.54c9.19-2.24,16.51-9.27,19.14-18.3-1.51-.49-2.6-1.79-2.6-3.34,0-1.89,1.61-3.42,3.65-3.53,0-.18.01-.37.01-.55,0-.5-.02-1-.04-1.5l-12.63-9.01-3.57,6.43c-9.68-.85-36.57,3.8-36.71,3.83,0,.09,0,.17,0,.26,0,.21.01.42.02.63,1.91.22,3.4,1.7,3.4,3.51,0,1.47-.97,2.72-2.36,3.27,2.69,9.25,10.28,16.4,19.78,18.46v-1.69h11.91ZM153.26,106.09c.9,0,1.62.73,1.62,1.62s-.73,1.62-1.62,1.62-1.62-.73-1.62-1.62.73-1.62,1.62-1.62ZM139.54,119.32h5.51c-.34,4.83-5.46,5.02-5.5,5.02h0s0,0,0,0,0,0,0,0h0s-5.16-.19-5.5-5.02h5.5ZM126.9,110.23c-.9,0-1.62-.73-1.62-1.62s.73-1.62,1.62-1.62,1.62.73,1.62,1.62-.73,1.62-1.62,1.62Z"/>
        <path class="cls-8" d="M136.45,79.81c-.36.04-.71.09-1.07.15-.1.02-.19.03-.29.05.65-.11,1.3-.2,1.97-.27-.08,0-.16.01-.25.02-.12.01-.24.03-.36.05Z"/>
        <path class="cls-8" d="M133.76,80.28c-.25.06-.5.13-.75.19.51-.13,1.02-.25,1.53-.35-.2.04-.4.07-.59.12-.06.01-.13.03-.19.04Z"/>
        <path class="cls-8" d="M138.25,79.65c-.12,0-.25.02-.37.03-.11,0-.23.02-.34.03.71-.06,1.42-.1,2.15-.1,0,0-.01,0-.02,0-.47,0-.94.01-1.41.04Z"/>
        <path class="cls-8" d="M152.79,83.09c1.21.69,2.37,1.48,3.45,2.35-1.08-.87-2.24-1.66-3.45-2.35Z"/>
        <path class="cls-8" d="M113.87,100.2l.05-.09c.6-2.59,1.55-5.04,2.85-7.28-1.89,3.27-3.11,6.97-3.45,10.93.12-1.22.3-2.29.3-2.29l.26-1.28Z"/>
        <path class="cls-8" d="M122.51,85.94c-1.7,1.45-3.21,3.11-4.5,4.94,1.29-1.83,2.8-3.49,4.5-4.94Z"/>
        <path class="cls-8" d="M128.52,82.07c-.07.03-.13.06-.2.09.06-.03.13-.05.2-.08,0,0,0,0,0,0Z"/>
        <path class="cls-8" d="M116.77,92.81c.38-.65.78-1.28,1.21-1.89-.43.61-.83,1.24-1.21,1.89Z"/>
        <path class="cls-8" d="M166.38,113.72c2.14,0,3.88-1.59,3.88-3.55s-1.74-3.55-3.88-3.55c-.08,0-.16.02-.24.02-.05,2.38-.41,4.68-1.05,6.87.4.13.83.22,1.29.22Z"/>
        <path class="cls-8" d="M162.5,110.17c0,1.55,1.09,2.85,2.6,3.34.64-2.19,1-4.49,1.05-6.87-2.03.11-3.65,1.64-3.65,3.53Z"/>
        <polygon class="cls-13" points="139.68 79.61 139.68 79.61 139.68 79.61 139.68 79.61 139.68 79.61"/>
        <polygon class="cls-13" points="135.09 80.01 135.09 80.01 135.09 80.01 135.09 80.01"/>
        <path class="cls-13" d="M124.27,84.56c.06-.04.12-.09.19-.13-.06.04-.13.09-.19.13Z"/>
        <path class="cls-13" d="M128.28,82.18s.03-.01.05-.02c-.02,0-.03.01-.05.02Z"/>
        <path class="cls-13" d="M126.2,83.3c.06-.04.13-.07.19-.11-.06.04-.13.07-.19.11Z"/>
        <path class="cls-13" d="M152.58,82.96c.07.04.14.08.21.12-.07-.04-.14-.08-.21-.12Z"/>
        <path class="cls-13" d="M116.76,92.84s.01-.02.02-.03c0,0-.01.02-.02.03Z"/>
        <path class="cls-13" d="M156.25,85.44s.05.04.08.06c-.03-.02-.05-.04-.08-.06Z"/>
        <path class="cls-13" d="M117.98,90.92s.02-.02.03-.04c0,.01-.02.02-.03.04Z"/>
        <path class="cls-13" d="M122.51,85.94s.06-.06.1-.08c-.03.03-.06.06-.1.08Z"/>
        <path class="cls-13" d="M144.44,80.04s-.06-.01-.09-.02c.03,0,.06.01.09.02Z"/>
        <path class="cls-13" d="M162.09,91.99s0,0,0,0c0,0,0,0,0,0Z"/>
        <path class="cls-13" d="M157.88,86.87s.08.07.11.11c-.04-.04-.07-.07-.11-.11Z"/>
        <path class="cls-13" d="M132.53,80.59s-.05.01-.07.02c.02,0,.05-.01.07-.02Z"/>
        <path class="cls-13" d="M115.66,96.77l4.43-5.79,18.3-2.47,15.15,1.36,11.96,10.3h0c-.67-2.94-1.83-5.7-3.39-8.18,0,0,0,0,0,0-1.16-1.84-2.54-3.52-4.1-5.02-.04-.04-.07-.07-.11-.11-.5-.48-1.02-.93-1.56-1.37-.03-.02-.05-.04-.08-.06-1.08-.87-2.24-1.66-3.45-2.35-.07-.04-.14-.08-.21-.12-.31-.18-.64-.33-.97-.49-1.25-.63-2.56-1.17-3.91-1.6-.18-.06-.35-.11-.53-.17-.37-.11-.73-.21-1.1-.3-.44-.11-.88-.21-1.33-.29-.1-.02-.2-.04-.3-.06-.03,0-.06-.01-.09-.02-.17-.03-.35-.05-.53-.08-.49-.08-.97-.14-1.47-.19-.21-.02-.42-.04-.63-.06-.68-.05-1.35-.09-2.04-.09,0,0,0,0,0,0,0,0,0,0,0,0-.72,0-1.44.04-2.15.1-.16.01-.32.02-.47.04-.66.07-1.32.15-1.97.27,0,0,0,0,0,0-.18.03-.36.07-.55.11-.52.1-1.03.22-1.53.35-.16.04-.33.08-.49.12-.02,0-.05.01-.07.02-.02,0-.05.01-.07.02-.53.15-1.05.33-1.57.51-.26.09-.52.19-.78.29-.51.2-1.02.41-1.51.64,0,0,0,0,0,0h0c-.06.03-.13.05-.2.08-.02,0-.03.01-.05.02-.64.31-1.27.65-1.89,1-.06.04-.13.07-.19.11-.6.35-1.18.73-1.74,1.13-.06.04-.13.09-.19.13-.57.41-1.13.84-1.66,1.29-.03.03-.06.06-.1.08-1.7,1.45-3.21,3.11-4.5,4.94,0,.01-.02.02-.03.04-.43.61-.83,1.24-1.21,1.89,0,0-.01.02-.02.03-1.29,2.24-2.25,4.69-2.85,7.28l1.75-3.35Z"/>
        <path class="cls-15" d="M130.45,81.26c.65-.24,1.31-.45,1.98-.64.1-.03.21-.06.31-.09.34-.09.67-.17,1.02-.25.06-.01.13-.03.19-.04.26-.06.52-.11.78-.16.12-.02.24-.04.35-.06.1-.02.19-.04.29-.05.35-.06.71-.11,1.07-.15.12-.01.24-.03.36-.05.12-.01.23-.02.35-.03.09,0,.19-.01.28-.02.14-.01.28-.02.43-.03.12,0,.25-.02.37-.03.47-.03.94-.04,1.41-.04,0,0,.02,0,.02,0,0,0,0,0,.01,0,.5,0,1,.02,1.5.05.12,0,.24.02.37.03.08,0,.17.01.25.02.11,0,.22.02.33.03.2.02.4.04.59.06.1.01.2.03.3.04.36.05.73.1,1.09.16.12.02.25.04.37.07.66.12,1.31.26,1.95.43.07.02.14.04.22.06.64.17,1.27.37,1.89.59.05.02.09.03.14.05.63.23,1.25.49,1.87.76.09.04.18.08.27.12.27.13.54.26.8.39,0-.11.02-.23.02-.34,0-6.38-5.17-11.56-11.56-11.56s-11.53,5.15-11.56,11.52c.58-.27,1.17-.52,1.78-.75.05-.02.1-.04.16-.06Z"/>
        <path class="cls-15" d="M130.45,81.26c.12-.04.24-.08.36-.12.52-.18,1.04-.36,1.57-.51.02,0,.03-.01.05-.02-.67.19-1.33.4-1.98.64Z"/>
        <path class="cls-15" d="M135.38,79.96c.35-.06.71-.11,1.07-.15-.36.04-.71.09-1.07.15Z"/>
        <path class="cls-15" d="M133.95,80.23c.2-.04.39-.08.59-.12.07-.01.13-.03.19-.04-.26.05-.52.1-.78.16Z"/>
        <path class="cls-15" d="M132.75,80.53c.09-.02.18-.04.27-.06.25-.07.5-.13.75-.19-.34.08-.68.16-1.02.25Z"/>
        <path class="cls-15" d="M141.56,79.68c.06,0,.11.01.17.02.03,0,.05,0,.08,0-.08,0-.17-.01-.25-.02Z"/>
        <path class="cls-15" d="M139.69,79.61c.5,0,1,.02,1.5.05-.5-.03-1-.05-1.5-.05Z"/>
        <path class="cls-15" d="M148.68,81.18c.63.23,1.25.49,1.87.76-.61-.28-1.23-.53-1.87-.76Z"/>
        <path class="cls-15" d="M143.03,79.83c.27.03.53.08.79.12.1.02.2.02.3.04-.36-.06-.72-.11-1.09-.16Z"/>
        <path class="cls-15" d="M138.25,79.65c.47-.03.94-.04,1.41-.04-.47,0-.94.01-1.41.04Z"/>
        <path class="cls-15" d="M142.14,79.72c.07,0,.14.02.22.03.13.01.25.02.38.03-.2-.02-.4-.04-.59-.06Z"/>
        <path class="cls-15" d="M146.66,80.54c.17.05.34.11.52.16.18.05.36.11.53.17.28.09.56.16.84.26-.62-.22-1.25-.42-1.89-.59Z"/>
        <path class="cls-15" d="M128.52,82.08c.5-.23,1-.44,1.51-.64.09-.03.17-.08.26-.11-.6.23-1.19.48-1.78.75,0,0,0,0,0,0,0,0,0,0,0,0Z"/>
        <path class="cls-15" d="M144.49,80.05c.08.02.16.04.25.05.45.09.89.18,1.33.29.12.03.25.05.37.08-.64-.17-1.29-.31-1.95-.43Z"/>
        <path class="cls-15" d="M137.45,79.71s.06,0,.08,0c.11,0,.23-.02.34-.03-.14,0-.28.02-.43.03Z"/>
        <path class="cls-15" d="M151.62,82.47h0s0-.01,0-.02c-.26-.13-.53-.26-.8-.39.27.13.53.27.8.41Z"/>
        <path class="cls-15" d="M136.81,79.76c.08,0,.16-.01.25-.02.03,0,.07-.01.1-.01-.12.01-.23.02-.35.03Z"/>
        <path class="cls-15" d="M144.12,79.98c.08.01.15.03.23.04.03,0,.06.01.09.02.02,0,.03,0,.05,0-.12-.02-.25-.05-.37-.07Z"/>
        <path class="cls-15" d="M130.3,81.32c.05-.02.1-.04.16-.06-.05.02-.1.04-.16.06Z"/>
        <path class="cls-15" d="M137.16,79.73c.09,0,.19-.01.28-.02-.09,0-.19.01-.28.02Z"/>
        <path class="cls-15" d="M148.55,81.13s.09.03.14.05c-.05-.02-.09-.03-.14-.05Z"/>
        <path class="cls-15" d="M141.81,79.7c.11,0,.22.02.33.03-.11-.01-.22-.02-.33-.03Z"/>
        <path class="cls-15" d="M146.44,80.48c.07.02.14.04.22.06-.07-.02-.14-.04-.22-.06Z"/>
        <path class="cls-15" d="M134.74,80.07c.12-.02.23-.04.35-.06,0,0,0,0,0,0-.12.02-.24.04-.35.06Z"/>
        <path class="cls-15" d="M132.43,80.62s.01,0,.02,0c.02,0,.05-.01.07-.02.07-.02.15-.04.22-.06-.11.03-.21.06-.31.09Z"/>
        <path class="cls-15" d="M150.55,81.94c.09.04.18.08.27.12-.09-.04-.18-.08-.27-.12Z"/>
        <path class="cls-15" d="M150.55,81.94c-.61-.28-1.23-.53-1.87-.76-.05-.02-.09-.03-.14-.05-.28-.1-.56-.17-.84-.26,1.35.43,2.66.97,3.91,1.6-.27-.14-.53-.28-.8-.41-.09-.04-.18-.08-.27-.12Z"/>
        <path class="cls-15" d="M146.44,80.48c-.12-.03-.25-.05-.37-.08.37.09.74.2,1.1.3-.17-.05-.34-.11-.52-.16-.07-.02-.14-.04-.22-.06Z"/>
        <path class="cls-15" d="M144.44,80.04c.1.02.2.04.3.06-.08-.02-.16-.04-.25-.05-.02,0-.03,0-.05,0Z"/>
        <path class="cls-15" d="M130.3,81.32c-.09.03-.17.08-.26.11.26-.1.52-.2.78-.29-.12.04-.24.07-.36.12-.05.02-.1.04-.16.06Z"/>
        <path class="cls-15" d="M141.81,79.7s-.05,0-.08,0c.21.02.42.04.63.06-.07,0-.14-.02-.22-.03-.11-.01-.22-.02-.33-.03Z"/>
        <path class="cls-15" d="M132.39,80.63s.05-.01.07-.02c0,0-.01,0-.02,0-.02,0-.03.01-.05.02Z"/>
        <path class="cls-15" d="M132.53,80.59c.16-.05.32-.08.49-.12-.09.02-.18.04-.27.06-.07.02-.15.04-.22.06Z"/>
        <path class="cls-15" d="M137.16,79.73s-.07.01-.1.01c.16-.02.31-.03.47-.04-.03,0-.06,0-.08,0-.09,0-.19.01-.28.02Z"/>
        <path class="cls-15" d="M134.55,80.12c.18-.04.36-.08.55-.11-.12.02-.24.04-.35.06-.07.01-.13.03-.19.04Z"/>
        <path class="cls-15" d="M143.82,79.95c.18.03.35.05.53.08-.08-.01-.15-.03-.23-.04-.1-.02-.2-.02-.3-.04Z"/>
        <polygon class="cls-15" points="128.52 82.08 128.52 82.08 128.52 82.08 128.52 82.08"/>
        <path class="cls-13" d="M166.16,104.62l-.09-.57c.01.18.03.36.04.53l.04.03Z"/>
        <path class="cls-13" d="M113.2,105.83s0,0,0,0c0-.69.04-1.38.1-2.06-.07.69-.12,1.43-.11,2.06Z"/>
        <path class="cls-13" d="M113.87,100.2l-.26,1.28c.08-.46.2-.91.3-1.37l-.05.09Z"/>
        <path class="cls-13" d="M149.91,102l3.57-6.43,12.63,9.01c-.01-.18-.03-.36-.04-.53l-.59-3.88h0c-6.37-4.72-15.27-7.66-25.12-7.66-10.73,0-20.33,3.49-26.76,8.97,0,0-.18,1.06-.3,2.29-.06.68-.09,1.37-.1,2.06.14-.02,27.03-4.68,36.71-3.83Z"/>
        <path class="cls-13" d="M153.74,85.21l-13.04-1.91-20.22,5.36-4.83,8.11-1.75,3.35c-.1.45-.22.9-.3,1.37,6.43-5.49,16.03-8.97,26.76-8.97,9.85,0,18.75,2.94,25.12,7.66h0l-11.74-14.97Z"/>
        <path class="cls-2" d="M126.9,106.98c-.9,0-1.62.73-1.62,1.62s.73,1.62,1.62,1.62,1.62-.73,1.62-1.62-.73-1.62-1.62-1.62Z"/>
        <path class="cls-2" d="M153.26,109.33c.9,0,1.62-.73,1.62-1.62s-.73-1.62-1.62-1.62-1.62.73-1.62,1.62.73,1.62,1.62,1.62Z"/>
        <polygon class="cls-2" points="139.55 124.34 139.55 124.34 139.55 124.34 139.55 124.34"/>
        <path class="cls-2" d="M139.54,124.34v-5.02h-5.5c.34,4.83,5.46,5.02,5.5,5.02Z"/>
        <path class="cls-2" d="M145.05,119.32h-5.5v5.02s5.16-.19,5.5-5.02Z"/>
        <polygon class="cls-2" points="139.54 124.34 139.55 124.34 139.54 124.34 139.54 124.34"/>
        <rect class="cls-2" x="139.54" y="119.32" width="0" height="5.02"/>
        <path class="cls-8" d="M145.96,131.81c-2.01.49-4.11.75-6.28.75-1.94,0-3.82-.21-5.64-.61v2.47h11.91v-2.62Z"/>
        <path class="cls-8" d="M145.96,131.81v-1.54h-11.91v1.69c1.82.39,3.7.61,5.64.61,2.16,0,4.26-.27,6.28-.75Z"/>
        <path class="cls-11" d="M145.96,134.43h-11.91c-10.83,0-12.34,8.94-12.34,8.94v.75c5.43,2.71,11.53,4.23,17.98,4.23s12.43-1.49,17.82-4.15c-.65-9.25-11.55-9.76-11.55-9.76Z"/>
        <path class="cls-8" d="M112.73,106.67c-2.14,0-3.88,1.59-3.88,3.55s1.74,3.55,3.88,3.55c.54,0,1.06-.1,1.53-.29-.63-2.16-.99-4.43-1.04-6.78-.16-.02-.32-.04-.48-.04Z"/>
        <path class="cls-8" d="M116.62,110.23c0-1.81-1.49-3.29-3.4-3.51.06,2.35.41,4.62,1.04,6.78,1.39-.54,2.36-1.8,2.36-3.27Z"/>
      </g>
    </g>
  </g>
</svg>