<?xml version="1.0" encoding="UTF-8"?>
<svg id="Calque_2" data-name="Calque 2" xmlns="http://www.w3.org/2000/svg" viewBox="0 0 284.6 246.98">
  <defs>
    <style>
      .cls-1 {
        fill: #be6a7f;
      }

      .cls-1, .cls-2, .cls-3, .cls-4, .cls-5, .cls-6, .cls-7, .cls-8, .cls-9, .cls-10, .cls-11, .cls-12, .cls-13, .cls-14, .cls-15, .cls-16 {
        stroke-width: 0px;
      }

      .cls-2 {
        fill: #000;
      }

      .cls-3 {
        fill: #808b8d;
      }

      .cls-4 {
        fill: #6ba174;
      }

      .cls-5 {
        fill: #bbc2ca;
      }

      .cls-6 {
        fill: #edf0f2;
      }

      .cls-7 {
        fill: #f7f6eb;
      }

      .cls-8 {
        fill: #6a7474;
      }

      .cls-9 {
        fill: #d29d71;
      }

      .cls-10 {
        fill: #bbc2c8;
      }

      .cls-11 {
        fill: #748283;
      }

      .cls-12 {
        fill: #bfc4cb;
      }

      .cls-13 {
        fill: #7f8c8d;
      }

      .cls-14 {
        fill: #dfc7aa;
      }

      .cls-15 {
        fill: #7d8b8e;
      }

      .cls-16 {
        fill: #e6e5ea;
      }
    </style>
  </defs>
  <g id="Calque_1-2" data-name="Calque 1">
    <g id="Ecran3">
      <rect class="cls-8" width="284.6" height="196.09" rx="13.36" ry="13.36"/>
      <rect class="cls-3" x="10.72" y="15.32" width="261.45" height="165.11"/>
      <rect class="cls-7" x="22.09" y="44.55" width="235.19" height="135.87"/>
      <path class="cls-5" d="M25.43,29.49h228.51c1.84,0,3.34,1.5,3.34,3.34v11.72H22.09v-11.72c0-1.84,1.5-3.34,3.34-3.34Z"/>
      <circle class="cls-1" cx="26.4" cy="37.02" r="2.19"/>
      <circle class="cls-14" cx="34.64" cy="37.02" r="2.19"/>
      <circle class="cls-4" cx="42.38" cy="37.02" r="2.19"/>
      <rect class="cls-12" x="108.85" y="162.29" width="61.66" height="7.66" rx="2.81" ry="2.81"/>
      <path class="cls-15" d="M159.09,162.29h8.62c1.55,0,2.81,1.26,2.81,2.81v2.04c0,1.55-1.26,2.81-2.81,2.81h-8.62v-7.66h0Z"/>
      <rect class="cls-16" x="53.96" y="34.71" width="185.96" height="4.62" rx=".5" ry=".5"/>
      <path class="cls-13" d="M93.45,196.09l-10.38,26.89s-3.4,19.06,13.28,24h85.45s19.91-5.28,14.47-24.17c-4.94-11.57-10.72-26.72-10.72-26.72h-92.09Z"/>
      <polygon class="cls-11" points="91.35 201.51 93.45 196.09 185.53 196.09 187.14 200.24 187.14 201.51 91.35 201.51"/>
      <g id="PersoEcran3ChvxBlanc">
        <g>
          <path class="cls-10" d="M180.44,107.35c0-23.34-18.44-42.26-41.19-42.26s-41.19,18.92-41.19,42.26c0,15.59,8.24,29.2,20.48,36.52v-.16c1.32-10.43,16.39-9.88,16.39-9.88l10.31-.17c12.94.13,14.65,10.09,14.65,10.09v.16c12.28-7.31,20.55-20.94,20.55-36.56Z"/>
          <path class="cls-2" d="M145.24,133.66l-10.31.17s-15.07-.55-16.39,9.88v.16c6.09,3.64,13.16,5.74,20.71,5.74s14.57-2.08,20.65-5.7v-.16s-1.72-9.97-14.65-10.09Z"/>
        </g>
        <ellipse class="cls-9" cx="139.24" cy="107.62" rx="25.87" ry="24"/>
        <polygon class="cls-9" points="134.92 131.28 134.92 135.11 145.24 135.11 145.24 130.26 134.92 130.26 134.92 131.28"/>
        <g id="Bouche">
          <path class="cls-2" d="M134.31,116.28h5.51v5.02s-5.17-.17-5.51-5.02Z"/>
          <path class="cls-2" d="M145.32,116.28h-5.51s0,5.02,0,5.02c0,0,5.17-.17,5.51-5.02Z"/>
        </g>
        <circle class="cls-2" cx="126.59" cy="105.23" r="1.95"/>
        <circle class="cls-2" cx="152.02" cy="105.23" r="1.95"/>
        <ellipse class="cls-9" cx="113.37" cy="110.24" rx="3.74" ry="3.34" transform="translate(-8.39 9.34) rotate(-4.55)"/>
        <ellipse class="cls-9" cx="164.15" cy="110.05" rx="3.74" ry="3.34"/>
        <path class="cls-6" d="M113.17,106.53s1.85-.01,2.62.95c0,0,1.23-13.27,2.74-13.53,0,0,34.13,5.87,43.64,3.51l.96,9.06h1.96l.03-31.72s-1.73,3.96-6.58,4.02c-4.85.06-36.45-.13-36.45-.13,0,0-8.83,2.55-8.91,13.09s0,14.74,0,14.74Z"/>
      </g>
    </g>
  </g>
</svg>