<?xml version="1.0" encoding="UTF-8"?>
<svg id="Calque_2" data-name="Calque 2" xmlns="http://www.w3.org/2000/svg" viewBox="0 0 284.6 246.98">
  <defs>
    <style>
      .cls-1 {
        fill: #be6a7f;
      }

      .cls-1, .cls-2, .cls-3, .cls-4, .cls-5, .cls-6, .cls-7, .cls-8, .cls-9, .cls-10, .cls-11, .cls-12, .cls-13, .cls-14, .cls-15, .cls-16 {
        stroke-width: 0px;
      }

      .cls-2 {
        fill: #eec19c;
      }

      .cls-3 {
        fill: #000;
      }

      .cls-4 {
        fill: #808b8d;
      }

      .cls-5 {
        fill: #6ba174;
      }

      .cls-6 {
        fill: #bbc2ca;
      }

      .cls-7 {
        fill: #f7f6eb;
      }

      .cls-8 {
        fill: #6a7474;
      }

      .cls-9 {
        fill: #bbc2c8;
      }

      .cls-10 {
        fill: #748283;
      }

      .cls-11 {
        fill: #bfc4cb;
      }

      .cls-12 {
        fill: #7f8c8d;
      }

      .cls-13 {
        fill: #fff;
      }

      .cls-14 {
        fill: #dfc7aa;
      }

      .cls-15 {
        fill: #7d8b8e;
      }

      .cls-16 {
        fill: #e6e5ea;
      }
    </style>
  </defs>
  <g id="Calque_1-2" data-name="Calque 1">
    <g id="Ecran2">
      <rect class="cls-8" width="284.6" height="196.09" rx="13.36" ry="13.36"/>
      <rect class="cls-4" x="10.72" y="15.32" width="261.45" height="165.11"/>
      <rect class="cls-7" x="22.09" y="44.55" width="235.19" height="135.87"/>
      <path class="cls-6" d="M25.43,29.49h228.51c1.84,0,3.34,1.5,3.34,3.34v11.72H22.09v-11.72c0-1.84,1.5-3.34,3.34-3.34Z"/>
      <circle class="cls-1" cx="26.4" cy="37.02" r="2.19"/>
      <circle class="cls-14" cx="34.64" cy="37.02" r="2.19"/>
      <circle class="cls-5" cx="42.38" cy="37.02" r="2.19"/>
      <rect class="cls-11" x="108.85" y="162.29" width="61.66" height="7.66" rx="2.81" ry="2.81"/>
      <path class="cls-15" d="M159.09,162.29h8.62c1.55,0,2.81,1.26,2.81,2.81v2.04c0,1.55-1.26,2.81-2.81,2.81h-8.62v-7.66h0Z"/>
      <rect class="cls-16" x="53.96" y="34.71" width="185.96" height="4.62" rx=".5" ry=".5"/>
      <path class="cls-12" d="M93.45,196.09l-10.38,26.89s-3.4,19.06,13.28,24h85.45s19.91-5.28,14.47-24.17c-4.94-11.57-10.72-26.72-10.72-26.72h-92.09Z"/>
      <polygon class="cls-10" points="91.35 201.51 93.45 196.09 185.53 196.09 187.14 200.24 187.14 201.51 91.35 201.51"/>
      <g id="ScreenPerso2">
        <g>
          <path class="cls-9" d="M183.49,108.45c0-23.34-18.44-42.26-41.19-42.26s-41.19,18.92-41.19,42.26c0,16.08,8.76,30.06,21.64,37.2.05-1.57.1-4.63-.07-9.72,1.34-8.11,11.68-8.39,11.68-8.39,0,0,.1,0,.29,0h0s1.76,0,1.76,0c0,0,0,0,0,0,1.43,0,3.58,0,6.3,0,1.77,0,2.47,0,2.73,0,.88,0,1.8,0,2.77,0,8.36.1,8.55,7.75,8.55,7.75v12.72c15.61-6.01,26.72-21.45,26.72-39.57Z"/>
          <path class="cls-3" d="M148.22,127.54c-.97,0-1.89,0-2.77,0,.11,0,.16,0,.16,0l-5.91,22.77-5.03-22.77c-.19,0-.29,0-.29,0,0,0-10.34.28-11.68,8.39.16,5.08.12,8.14.07,9.72,5.82,3.22,12.47,5.05,19.55,5.05,5.09,0,9.97-.95,14.47-2.69v-12.72s-.19-7.65-8.55-7.75Z"/>
          <path class="cls-3" d="M139.34,131.6c2.87-.1,3.6-1.12,3.28-4.04.03,0,.05,0,.08,0-2.73,0-4.87,0-6.3,0-.02.08-.92,4.21,2.94,4.05Z"/>
          <path class="cls-13" d="M142.71,127.56c.85,0,1.77,0,2.73,0-.26,0-.96,0-2.73,0Z"/>
          <path class="cls-13" d="M136.41,127.54h-1.76,0c.32,0,.92,0,1.76,0,0,0,0,0,0,0Z"/>
          <path class="cls-13" d="M145.6,127.55s-.04,0-.16,0c-.97,0-1.88,0-2.73,0-.03,0-.05,0-.08,0,.32,2.92-.41,3.94-3.28,4.04-3.85.16-2.95-3.97-2.94-4.05-.84,0-1.43,0-1.76,0l5.03,22.77,5.91-22.77Z"/>
        </g>
        <path class="cls-3" d="M129.43,122.74s-9.11-3.31-13.2-7.05c0,0-3.15.68-4.17-.68s-3.15-3.15,0-6.94c-3.57.04-3.57-2.23-4.09-4.12s2.3-4.1,2.3-4.1c0,0-1.19-1.45-.6-5.28s2.04-2.89,2.04-2.89c0,0-.34-4.94.6-5.79s2.98-.77,2.98-.77c0,0-.09-3.15.94-4.77s3.32-.94,3.32-.94c0,0-.21-4.01,2.81-5.45,4.34-2.06,4.87-.34,6.35-.34s.37-3.4,6.24-3.06c5.87.34,5.53,2.13,5.53,2.13,0,0,1.36-3.15,5.28-2.89s5.7.85,6.89,5.7c0,0,4.09-1.11,6.3.26s2.98,3.06,3.23,5.96c0,0,5.02-.85,5.36,4.6s-.85,6.38-.85,6.38c0,0,2.64.43,2.55,2.64s-1.7,4.68-1.7,4.68c0,0,2.98-.15,2.72,3.93s-3.66,4.76-3.66,4.76c0,0,1.11,4.94-1.45,6.47-2.55,1.53-2.98.85-2.98.85,0,0-6.88,7.38-12.62,7.06,0,0,11.42-20.96,7.76-26.44s-9.28-7.35-16.77-6.24c-7.49,1.11-13.7,1.53-16.17,5.7s-3.4,5.55-3.06,9.29,3.06,11.31,4.17,12.5c1.11,1.19,3.92,4.84,3.92,4.84Z"/>
        <ellipse class="cls-2" cx="139.87" cy="103.95" rx="22.33" ry="21.24"/>
        <path class="cls-3" d="M128.72,122.46s-8.6-4.91-10.41-12.97c-1.64.1-4.83.61-3.94-4.83,0,0,.34-2.34,2.34.43l.83.85s-2.13-14.47,7.06-17.48c2.88-3.41,7.31.21,9,1.18,1.44.82,6.42.44,7.06-.05,1.9-1.44,3.98.52,3.98.52,0,0,4.66-2.17,8.36-.06,5.68-1.21,6.75,4.37,7.69,4.62s1.08,3.78,1.5,4.55-.18,7.42-.18,7.42l.52.44.21-2.02s-.51-1.66,1.45-1.49c1.96.17,1.4,4.51,1.4,4.51,0,0,.13,1.74-1.66,1.62s-2.26-.3-2.26-.3c0,0-3.26,9.83-11.03,13.17l15.02-11.89,1.57-8.55-8.23-15.77-14.36-8.36-25.28,3.57-1.83,4.98-1.87,10.85-3.19,4.28,1.6,9.26,5.17,4.66,3,3.51,6.48,3.38Z"/>
        <circle class="cls-3" cx="128.72" cy="105.39" r="2.01"/>
        <circle class="cls-3" cx="150.65" cy="105.39" r="2.01"/>
        <path class="cls-2" d="M136.41,124.94v4.23s-.11,2.55,3.23,2.43c3.34-.13,2.97-2.62,2.97-2.62v-5.49h-6.21v1.45Z"/>
        <g id="Bouche">
          <path class="cls-3" d="M134.36,113.96h5.51v5.02s-5.17-.17-5.51-5.02Z"/>
          <path class="cls-3" d="M145.37,113.96h-5.51s0,5.02,0,5.02c0,0,5.17-.17,5.51-5.02Z"/>
        </g>
      </g>
    </g>
  </g>
</svg>