<?xml version="1.0" encoding="UTF-8"?>
<svg id="Calque_2" data-name="Calque 2" xmlns="http://www.w3.org/2000/svg" viewBox="0 0 294.01 334.15">
  <defs>
    <style>
      .cls-1 {
        fill: #edf0f2;
      }

      .cls-1, .cls-2, .cls-3, .cls-4, .cls-5, .cls-6, .cls-7, .cls-8, .cls-9, .cls-10, .cls-11, .cls-12, .cls-13, .cls-14, .cls-15, .cls-16, .cls-17, .cls-18, .cls-19, .cls-20, .cls-21, .cls-22, .cls-23, .cls-24, .cls-25 {
        stroke-width: 0px;
      }

      .cls-2 {
        fill: #f7cfaa;
      }

      .cls-3 {
        fill: #f6645e;
      }

      .cls-4 {
        fill: #a29ba3;
      }

      .cls-5 {
        fill: #ffd86b;
      }

      .cls-6 {
        fill: #404042;
      }

      .cls-7 {
        fill: #4897c7;
      }

      .cls-9 {
        fill: #414043;
      }

      .cls-10 {
        fill: #45637c;
      }

      .cls-11 {
        fill: #68cdf0;
      }

      .cls-12 {
        fill: #707577;
      }

      .cls-13 {
        fill: #d89c72;
      }

      .cls-14 {
        fill: #f7c399;
      }

      .cls-26 {
        opacity: .4;
      }

      .cls-15 {
        fill: #fff;
      }

      .cls-16 {
        fill: #454849;
      }

      .cls-17 {
        fill: #eebc94;
      }

      .cls-18 {
        fill: #605756;
      }

      .cls-19 {
        fill: #34495d;
      }

      .cls-20 {
        fill: #3e2b11;
      }

      .cls-21 {
        fill: #9b221f;
      }

      .cls-22 {
        fill: #f2f2f2;
      }

      .cls-23 {
        fill: #3d3f0c;
      }

      .cls-24 {
        fill: #4d3f3e;
      }

      .cls-25 {
        fill: #d89d74;
      }
    </style>
  </defs>
  <g id="Calque_1-2" data-name="Calque 1">
    <g id="IMG1">
      <rect class="cls-11" width="293.36" height="235.32"/>
      <g id="BackTabl">
        <rect class="cls-18" x="23.3" y="54.38" width="247.82" height="133.79"/>
        <rect class="cls-7" x="30.08" y="62.04" width="233.55" height="116.04"/>
        <g id="Nuage" class="cls-26">
          <path class="cls-15" d="m224.88,113.19h22.28s2-4.47-6.6-4.51c0,0-.98-5.57-6.04-5.53l-9.64,10.04Z"/>
          <path class="cls-15" d="m234.52,113.19h-12.64s-2-4.47,6.6-4.51c0,0,.98-5.57,6.04-5.53v10.04Z"/>
        </g>
        <g id="Nuage-2" data-name="Nuage" class="cls-26">
          <path class="cls-15" d="m263.63,76.98h-12.64s-2-4.47,6.6-4.51c0,0,.98-5.57,6.04-5.53v10.04Z"/>
        </g>
        <g id="Nuage-3" data-name="Nuage" class="cls-26">
          <path class="cls-15" d="m191.46,85.88h12.64s2-4.47-6.6-4.51c0,0-.98-5.57-6.04-5.53v10.04Z"/>
          <path class="cls-15" d="m201.54,85.88h-22.72s-2-4.47,6.6-4.51c0,0,.98-5.57,6.04-5.53l10.09,10.04Z"/>
        </g>
        <g id="Nuage-4" data-name="Nuage" class="cls-26">
          <path class="cls-15" d="m94.17,79.17h12.64s2-4.47-6.6-4.51c0,0-.98-5.57-6.04-5.53v10.04Z"/>
          <path class="cls-15" d="m103.22,79.17h-21.69s-2-4.47,6.6-4.51c0,0,.98-5.57,6.04-5.53l9.05,10.04Z"/>
        </g>
      </g>
      <g id="Tableau">
        <rect id="LPilarTabl" class="cls-4" x="82" y="215.61" width="51.62" height="7.45" transform="translate(351.66 235.63) rotate(120)"/>
        <rect id="RTablPilar" class="cls-4" x="159.69" y="213.98" width="51.62" height="7.45" transform="translate(281.29 -51.8) rotate(60)"/>
        <rect id="TablBlanc" class="cls-15" x="69.84" y="86.81" width="154.34" height="113.57"/>
        <circle class="cls-22" cx="151.37" cy="142.05" r="41.82"/>
        <polygon id="FlecheUp" class="cls-3" points="118.18 157.45 123.97 163.57 137.59 149.36 154.78 162.04 174.18 141.96 175.29 141.96 175.29 145.79 184.56 145.96 184.56 126.3 165.5 126.3 165.24 135.66 167.88 135.83 154.18 151.06 137.33 138.21 118.18 157.45"/>
        <rect id="UpTabl" class="cls-4" x="64.86" y="82.98" width="161.62" height="3.83"/>
        <rect id="BottomTabl" class="cls-4" x="64.86" y="200.38" width="161.62" height="3.83"/>
        <rect id="topTablS" class="cls-4" x="143.44" y="74.15" width="7.53" height="10.74"/>
      </g>
      <rect class="cls-8" x=".65" y="235.32" width="293.36" height="98.55"/>
      <g id="P1">
        <g id="FullCorpsP1">
          <polygon id="chemsiseP1" class="cls-15" points="41.03 125.98 59.67 125.98 50.86 166.81 41.03 125.98"/>
          <path class="cls-19" d="m70.65,178s.38,23.87-3.32,43.91h-7.02l-.89-25.53s1.79-9.83-8.04-9.45v-8.94h19.28Z"/>
          <path class="cls-19" d="m32.1,178s-.38,23.87,3.32,43.91h8.64s-.72-25.53-.72-25.53c0,0-1.79-9.83,8.04-9.45v-8.94s-19.28,0-19.28,0Z"/>
          <polygon id="CeintureBaseP1" class="cls-8" points="70.66 173.4 70.65 182.47 32.08 182.66 32.03 173.4 70.66 173.4"/>
          <path id="boucleCeintureP1" class="cls-23" d="m51.18,175.96s4.95-.89,5.01,3.03-5.01,2.55-5.01,2.55v-1.85s2.71.03,2.51-1.24-2.51-.77-2.51-.77v-1.72Z"/>
          <path id="LHandP1" class="cls-17" d="m28.68,176.09s4.72,7.97,7.43,7.14,2.81-3.13,2.81-3.13c0,0,3.26.1,3.61-.41s1.98-3.23-.93-3.6-1.18-1.86-2.74-2.11c-1.56-.26-6.78-1.63-6.78-1.63l-3.95-1.56.55,5.3Z"/>
          <path id="RHandP1" class="cls-17" d="m99.24,135.23s-.7-7.02,1.6-7.09l2.3-.06s.45-5.81,2.74-5.36c2.3.45,1.53,6.57,1.53,6.57,0,0,5.36,5.23,1.91,7.02s-3.39,3-3.39,3l-5.23.44s-1.73-2.36-1.57-2.68.1-1.85.1-1.85Z"/>
          <polygon class="cls-14" points="45.26 122.23 45.26 125.98 58.2 125.98 58.2 120.62 45.26 120.62 45.26 122.23"/>
          <path id="CostumeBaseP1" class="cls-19" d="m45.29,124.51s-15.74,1.53-22.3,17.36-5.45,22.81,5.45,34.38l.25-.17,6.9-4.6s-11.4-5.19-5.11-25.19l.51-.77.98,26.3.15,3.91,39.9-.17v-25.19s2.98,6.38,13.02,6.38,21.28-17.45,21.28-17.45c0,0-4.51.34-7.06-4.09,0,0-10.89,11.49-13.7,11.49s-18.13-17.53-18.13-17.53c0,0-1.19-3.4-9.19-4.09l-5.11,32.85h-4.17l-3.66-33.45Z"/>
          <path class="cls-17" d="m33.44,172.71l3.21.74s3.19.37,3.02,1.32c-.17.95,1.36,1.22,1.36,1.22,0,0,3.07.12,2.17,2.28s-.34,1.73-4.28,1.84c-3.94.11-8.17-5.4-8.17-5.4"/>
          <polygon class="cls-21" points="49.37 125.98 49.2 157.96 53.12 157.96 53.12 125.98 49.37 125.98"/>
          <polygon id="LeftSockP1" class="cls-10" points="37.2 221.02 37.2 227.88 37.2 229.99 42.95 229.99 42.95 220.51 37.2 220.8 37.2 221.02"/>
          <polygon id="LeftSockP1-2" data-name="LeftSockP1" class="cls-10" points="61.3 220.3 61.3 227.16 61.3 229.27 65.93 229.27 65.93 219.79 61.3 220.08 61.3 220.3"/>
          <path class="cls-24" d="m43.11,226.81v8.43h-17.83s-.97-7.32,3.97-7.36,7.83-1.06,7.83-1.06c0,0,.87,1.53,6.03,0Z"/>
          <path class="cls-24" d="m60.93,227.96s-.98,1.57-1.38,1.81-.33,5.47-.33,5.47l19.82-.21s1.47-5.96-3.94-6.91c0,0-7.66-.02-9-.49,0,0-3.21,1.21-4.91.13l-.26.21Z"/>
        </g>
        <g id="TeteP1">
          <path id="contourExtChvxP1" class="cls-8" d="m23.16,110.21s-4.43.6-6.64-2.3c-2.21-2.89,1.11-7.15,1.11-7.15,0,0-4.85.62-6.3-4.88-1.45-5.5,4.43-5.76,4.43-5.76,0,0-7.23-6.64.51-9.36.85-2.64-2.85-2.47.86-7.57,1.11-1.53,4.24-1.19,4.24-1.19,0,0-.94-5.45,1.02-6.3s3.66-.43,3.66-.43c0,0-.94-4.77,3.32-6.64,4.26-1.87,6.47-.43,6.47-.43,0,0,2.98-1.79,6.55-.94,0,0,.6-4.09,5.53-3.23,4.94.85,3.96,1.7,3.96,1.7,0,0,2.34-3.32,6.85-2.72s8.4,4.17,8.4,4.17c0,0,.73.74,1.13,1.87,0,0,4.3-1.91,9.19.68,1.65.87,4.6,3.06,3.23,8.85,0,0,4.26-.34,5.36,4.43,1.11,4.77-2.81,7.91-2.81,7.91,0,0,4.94-.09,4.85,4.6s-4.17,4.85-4.17,4.85c0,0,5.7.85,5.53,5.87s-6.38,4.6-6.38,4.6c0,0,2.64,2.13,1.7,4.77s-2.89,3.83-3.4,4-3.57.65-3.57.65c0,0,1.62,4.37-.43,4.97s-4.51,1.53-4.51,1.53l-5.35,1.88-44.36-8.43Z"/>
          <ellipse id="FaceP1" class="cls-14" cx="51.88" cy="95.88" rx="29.49" ry="26.84"/>
          <path class="cls-8" d="m23.16,95.76v1.95l1.87-.04s-.21-4.55,1.36-5.79,2-4.13,2.64-4.55.81.66,2.81-1.52.51-2.99,2.68-3.2c2.17-.21,4.13-.26,4.13-.26,0,0,1.66-2.94,2.81-2.85,1.15.09,1.28,1.74,2.26,2.09s5.7.34,6.38-.21,1-1.7,2.57-1.83c1.57-.13,1.34.81,2.36,1.62s2.98,1.74,4.26,1.49c1.28-.26,2.09-.72,3.38-1.4s1.6,1.96,1.81,2.34-.26.43,1.49,1.7,2.43,3.1,4.13,3,1.19,1.43,2,2.41-.51,1.19,1.87,1.91,2.89-.26,3.06,1.57,0,3.49,0,3.49l2.3.17-.21-3.91,2.17-.09.09,2.05,2.09.29s-5.79-34.09-35.53-29.23c-29.74,4.85-25.88,28.15-25.88,28.15"/>
          <circle id="RightEyeP1" class="cls-6" cx="64.9" cy="97.32" r="2.23"/>
          <circle id="LeftEyeP1" class="cls-6" cx="37.71" cy="97.32" r="2.23"/>
          <g id="boucheP1">
            <path class="cls-6" d="m44.67,109.06h7.21l-.7,5.55s-4.85.26-6.51-5.55Z"/>
            <path class="cls-6" d="m57.69,109.06h-8.53l2.01,5.55s4.85.26,6.51-5.55Z"/>
          </g>
        </g>
      </g>
      <g id="Bureau">
        <rect class="cls-20" x="206.27" y="143.16" width="77.28" height="5.95"/>
        <rect class="cls-20" x="215.46" y="230.18" width="58.64" height="5.14"/>
        <polygon class="cls-20" points="210.18 148.15 222.33 230.89 268.73 230.89 279.63 148.15 210.18 148.15"/>
        <path class="cls-12" d="m269.24,143.16s-4.85-20.86-10.21-21.05-6.32,0-6.32,0l.26-2.04h5.87s5.49-1.55,13.66,23.1h-3.26Z"/>
        <rect class="cls-16" x="239.57" y="117.7" width="15.58" height="7.15" rx="3.57" ry="3.57"/>
      </g>
      <g id="PNoir">
        <ellipse class="cls-2" cx="9.93" cy="298.34" rx="6.77" ry="6.26"/>
        <ellipse class="cls-2" cx="84.78" cy="298.34" rx="6.77" ry="6.26"/>
        <rect class="cls-2" x="43.29" y="326.64" width="13.79" height="7.23"/>
        <path class="cls-9" d="m10.18,263.23s.51,38.13,1.36,48.51,25.36,19.4,38.64,19.57c13.28.17,31.83-13.79,31.83-13.79,0,0,8.15-42.31,5.28-54.3-4.81-20.04-38.1-17.7-38.1-17.7,0,0-30.28-.94-39.01,17.7Z"/>
      </g>
      <g id="PBlond">
        <ellipse class="cls-2" cx="106.14" cy="306" rx="5.63" ry="5.88"/>
        <ellipse class="cls-2" cx="188.1" cy="306.55" rx="5.63" ry="5.88"/>
        <ellipse class="cls-5" cx="146.68" cy="277.98" rx="40.54" ry="23.55"/>
        <polygon class="cls-5" points="106.14 277.85 106.54 334.15 187.22 334.15 187.22 277.85 106.14 277.85"/>
      </g>
      <g id="PBlanc">
        <ellipse id="CranePBlanc" class="cls-25" cx="243.9" cy="315.72" rx="29.02" ry="15.88"/>
        <polygon id="CouPBlanc" class="cls-13" points="238.27 329.96 238.27 333.87 250.95 333.96 250.95 329.96 238.27 329.96"/>
        <ellipse id="LOreillePBlanc" class="cls-2" cx="204.31" cy="298.72" rx="5.63" ry="5.88"/>
        <ellipse id="ROreillePBlanc" class="cls-2" cx="285.07" cy="298.72" rx="5.63" ry="5.88"/>
        <path id="ChvxBlanc" class="cls-1" d="m219.71,324.77l48.13.28s14.72-11.06,15.49-20.68,1.11-33.79,1.11-33.79c0,0-.6-2.04,0-4.26s.68-2.3,1.53-3.49.94-1.79,1.02-3.83-2.21-15.15-3.23-16.51c0,0-2.72,6.98-7.83,8.26-6.47.17-20.68.17-20.68.17l-36.34-.85s-8.77,1.62-10.3,12.77c0,0-4.09-.26-4.51,5.19s0,37.19,0,37.19c0,0,2.58,13.85,15.62,19.55Z"/>
      </g>
    </g>
  </g>
</svg>