<?xml version="1.0" encoding="UTF-8"?>
<svg id="Calque_1" data-name="Calque 1" xmlns="http://www.w3.org/2000/svg" viewBox="0 0 300 336">
  <defs>
    <style>
      .cls-1 {
        fill: #f7cfaa;
      }

      .cls-1, .cls-2, .cls-3, .cls-4, .cls-5, .cls-6, .cls-7, .cls-8, .cls-9, .cls-10, .cls-11, .cls-12, .cls-13, .cls-14, .cls-15, .cls-16, .cls-17, .cls-18, .cls-19, .cls-20, .cls-21, .cls-22, .cls-23, .cls-24, .cls-25 {
        stroke-width: 0px;
      }

      .cls-2 {
        fill: #eebc94;
      }

      .cls-3 {
        fill: #414043;
      }

      .cls-4 {
        fill: #3d3f0c;
      }

      .cls-5 {
        fill: #000;
      }

      .cls-6 {
        fill: #605756;
      }

      .cls-7 {
        fill: #f2f2f2;
      }

      .cls-8 {
        fill: #f7c399;
      }

      .cls-9 {
        fill: #707577;
      }

      .cls-10 {
        fill: #4897c7;
      }

      .cls-11 {
        fill: #4d3f3e;
      }

      .cls-12 {
        fill: #d89d74;
      }

      .cls-13 {
        fill: #3e2b11;
      }

      .cls-14 {
        fill: #34495d;
      }

      .cls-15 {
        fill: #edf0f2;
      }

      .cls-16 {
        fill: #9b221f;
      }

      .cls-17 {
        fill: #454849;
      }

      .cls-26 {
        opacity: .4;
      }

      .cls-18 {
        fill: #a29ba3;
      }

      .cls-19 {
        fill: #ffd86b;
      }

      .cls-20 {
        fill: #68cdf0;
      }

      .cls-21 {
        fill: #404042;
      }

      .cls-22 {
        fill: #45637c;
      }

      .cls-23 {
        fill: #fff;
      }

      .cls-24 {
        fill: #f6645e;
      }

      .cls-25 {
        fill: #d89c72;
      }
    </style>
  </defs>
  <g id="IMG1">
    <rect class="cls-20" x="3.01" y="1.44" width="293.36" height="235.32"/>
    <g id="BackTabl">
      <rect class="cls-6" x="26.31" y="55.82" width="247.82" height="133.79"/>
      <rect class="cls-10" x="33.09" y="63.48" width="233.55" height="116.04"/>
      <g id="Nuage" class="cls-26">
        <path class="cls-23" d="M227.89,114.63h22.28s2-4.47-6.6-4.51c0,0-.98-5.57-6.04-5.53l-9.64,10.04Z"/>
        <path class="cls-23" d="M237.53,114.63h-12.64s-2-4.47,6.6-4.51c0,0,.98-5.57,6.04-5.53v10.04Z"/>
      </g>
      <g id="Nuage-2" data-name="Nuage" class="cls-26">
        <path class="cls-23" d="M266.64,78.42h-12.64s-2-4.47,6.6-4.51c0,0,.98-5.57,6.04-5.53v10.04Z"/>
      </g>
      <g id="Nuage-3" data-name="Nuage" class="cls-26">
        <path class="cls-23" d="M194.47,87.32h12.64s2-4.47-6.6-4.51c0,0-.98-5.57-6.04-5.53v10.04Z"/>
        <path class="cls-23" d="M204.55,87.32h-22.72s-2-4.47,6.6-4.51c0,0,.98-5.57,6.04-5.53l10.09,10.04Z"/>
      </g>
      <g id="Nuage-4" data-name="Nuage" class="cls-26">
        <path class="cls-23" d="M97.18,80.61h12.64s2-4.47-6.6-4.51c0,0-.98-5.57-6.04-5.53v10.04Z"/>
        <path class="cls-23" d="M106.23,80.61h-21.69s-2-4.47,6.6-4.51c0,0,.98-5.57,6.04-5.53l9.05,10.04Z"/>
      </g>
    </g>
    <g id="Tableau">
      <rect id="LPilarTabl" class="cls-18" x="85.01" y="217.05" width="51.62" height="7.45" transform="translate(357.42 235.19) rotate(120)"/>
      <rect id="RTablPilar" class="cls-18" x="162.7" y="215.42" width="51.62" height="7.45" transform="translate(284.04 -53.68) rotate(60)"/>
      <rect id="TablBlanc" class="cls-23" x="72.85" y="88.25" width="154.34" height="113.57"/>
      <circle class="cls-7" cx="154.38" cy="143.49" r="41.82"/>
      <polygon id="FlecheUp" class="cls-24" points="121.19 158.89 126.98 165.02 140.6 150.8 157.79 163.48 177.19 143.4 178.3 143.4 178.3 147.23 187.57 147.4 187.57 127.74 168.51 127.74 168.26 137.1 170.89 137.27 157.19 152.51 140.34 139.65 121.19 158.89"/>
      <rect id="UpTabl" class="cls-18" x="67.87" y="84.42" width="161.62" height="3.83"/>
      <rect id="BottomTabl" class="cls-18" x="67.87" y="201.82" width="161.62" height="3.83"/>
      <rect id="topTablS" class="cls-18" x="146.45" y="75.59" width="7.53" height="10.74"/>
    </g>
    <rect class="cls-5" x="3.66" y="236.76" width="293.36" height="98.55"/>
    <g id="P1">
      <g id="FullCorpsP1">
        <polygon id="chemsiseP1" class="cls-23" points="44.04 127.42 62.68 127.42 53.87 168.25 44.04 127.42"/>
        <path class="cls-14" d="M73.66,179.44s.38,23.87-3.32,43.91h-7.02l-.89-25.53s1.79-9.83-8.04-9.45v-8.94h19.28Z"/>
        <path class="cls-14" d="M35.11,179.44s-.38,23.87,3.32,43.91h8.64s-.72-25.53-.72-25.53c0,0-1.79-9.83,8.04-9.45v-8.94s-19.28,0-19.28,0Z"/>
        <polygon id="CeintureBaseP1" class="cls-5" points="73.67 174.85 73.66 183.91 35.1 184.1 35.04 174.85 73.67 174.85"/>
        <path id="boucleCeintureP1" class="cls-4" d="M54.19,177.4s4.95-.89,5.01,3.03-5.01,2.55-5.01,2.55v-1.85s2.71.03,2.51-1.24-2.51-.77-2.51-.77v-1.72Z"/>
        <path id="LHandP1" class="cls-2" d="M31.69,177.53s4.72,7.97,7.43,7.14,2.81-3.13,2.81-3.13c0,0,3.26.1,3.61-.41s1.98-3.23-.93-3.6-1.18-1.86-2.74-2.11c-1.56-.26-6.78-1.63-6.78-1.63l-3.95-1.56.55,5.3Z"/>
        <path id="RHandP1" class="cls-2" d="M102.26,136.68s-.7-7.02,1.6-7.09l2.3-.06s.45-5.81,2.74-5.36c2.3.45,1.53,6.57,1.53,6.57,0,0,5.36,5.23,1.91,7.02s-3.39,3-3.39,3l-5.23.44s-1.73-2.36-1.57-2.68.1-1.85.1-1.85Z"/>
        <polygon class="cls-8" points="48.27 123.67 48.27 127.42 61.21 127.42 61.21 122.06 48.27 122.06 48.27 123.67"/>
        <path id="CostumeBaseP1" class="cls-14" d="M48.3,125.95s-15.74,1.53-22.3,17.36-5.45,22.81,5.45,34.38l.25-.17,6.9-4.6s-11.4-5.19-5.11-25.19l.51-.77.98,26.3.15,3.91,39.9-.17v-25.19s2.98,6.38,13.02,6.38,21.28-17.45,21.28-17.45c0,0-4.51.34-7.06-4.09,0,0-10.89,11.49-13.7,11.49s-18.13-17.53-18.13-17.53c0,0-1.19-3.4-9.19-4.09l-5.11,32.85h-4.17l-3.66-33.45Z"/>
        <path class="cls-2" d="M36.45,174.15l3.21.74s3.19.37,3.02,1.32c-.17.95,1.36,1.22,1.36,1.22,0,0,3.07.12,2.17,2.28s-.34,1.73-4.28,1.84c-3.94.11-8.17-5.4-8.17-5.4"/>
        <polygon class="cls-16" points="52.38 127.42 52.21 159.4 56.13 159.4 56.13 127.42 52.38 127.42"/>
        <polygon id="LeftSockP1" class="cls-22" points="40.21 222.46 40.21 229.32 40.21 231.43 45.96 231.43 45.96 221.95 40.21 222.24 40.21 222.46"/>
        <polygon id="LeftSockP1-2" data-name="LeftSockP1" class="cls-22" points="64.31 221.74 64.31 228.61 64.31 230.71 68.94 230.71 68.94 221.23 64.31 221.52 64.31 221.74"/>
        <path class="cls-11" d="M46.12,228.25v8.43h-17.83s-.97-7.32,3.97-7.36,7.83-1.06,7.83-1.06c0,0,.87,1.53,6.03,0Z"/>
        <path class="cls-11" d="M63.94,229.4s-.98,1.57-1.38,1.81-.33,5.47-.33,5.47l19.82-.21s1.47-5.96-3.94-6.91c0,0-7.66-.02-9-.49,0,0-3.21,1.21-4.91.13l-.26.21Z"/>
      </g>
      <g id="TeteP1">
        <path id="contourExtChvxP1" class="cls-5" d="M26.17,111.65s-4.43.6-6.64-2.3c-2.21-2.89,1.11-7.15,1.11-7.15,0,0-4.85.62-6.3-4.88-1.45-5.5,4.43-5.76,4.43-5.76,0,0-7.23-6.64.51-9.36.85-2.64-2.85-2.47.86-7.57,1.11-1.53,4.24-1.19,4.24-1.19,0,0-.94-5.45,1.02-6.3s3.66-.43,3.66-.43c0,0-.94-4.77,3.32-6.64,4.26-1.87,6.47-.43,6.47-.43,0,0,2.98-1.79,6.55-.94,0,0,.6-4.09,5.53-3.23,4.94.85,3.96,1.7,3.96,1.7,0,0,2.34-3.32,6.85-2.72s8.4,4.17,8.4,4.17c0,0,.73.74,1.13,1.87,0,0,4.3-1.91,9.19.68,1.65.87,4.6,3.06,3.23,8.85,0,0,4.26-.34,5.36,4.43s-2.81,7.91-2.81,7.91c0,0,4.94-.09,4.85,4.6s-4.17,4.85-4.17,4.85c0,0,5.7.85,5.53,5.87-.17,5.02-6.38,4.6-6.38,4.6,0,0,2.64,2.13,1.7,4.77s-2.89,3.83-3.4,4-3.57.65-3.57.65c0,0,1.62,4.37-.43,4.97s-4.51,1.53-4.51,1.53l-5.35,1.88-44.36-8.43Z"/>
        <ellipse id="FaceP1" class="cls-8" cx="54.89" cy="97.32" rx="29.49" ry="26.84"/>
        <path class="cls-5" d="M26.17,97.2v1.95l1.87-.04s-.21-4.55,1.36-5.79,2-4.13,2.64-4.55.81.66,2.81-1.52.51-2.99,2.68-3.2c2.17-.21,4.13-.26,4.13-.26,0,0,1.66-2.94,2.81-2.85,1.15.09,1.28,1.74,2.26,2.09s5.7.34,6.38-.21,1-1.7,2.57-1.83c1.57-.13,1.34.81,2.36,1.62s2.98,1.74,4.26,1.49c1.28-.26,2.09-.72,3.38-1.4s1.6,1.96,1.81,2.34-.26.43,1.49,1.7,2.43,3.1,4.13,3,1.19,1.43,2,2.41-.51,1.19,1.87,1.91,2.89-.26,3.06,1.57,0,3.49,0,3.49l2.3.17-.21-3.91,2.17-.09.09,2.05,2.09.29s-5.79-34.09-35.53-29.23c-29.74,4.85-25.88,28.15-25.88,28.15"/>
        <circle id="RightEyeP1" class="cls-21" cx="67.92" cy="98.76" r="2.23"/>
        <circle id="LeftEyeP1" class="cls-21" cx="40.72" cy="98.76" r="2.23"/>
        <g id="boucheP1">
          <path class="cls-21" d="M47.68,110.51h7.21l-.7,5.55s-4.85.26-6.51-5.55Z"/>
          <path class="cls-21" d="M60.7,110.51h-8.53l2.01,5.55s4.85.26,6.51-5.55Z"/>
        </g>
      </g>
    </g>
    <g id="Bureau">
      <rect class="cls-13" x="209.28" y="144.6" width="77.28" height="5.95"/>
      <rect class="cls-13" x="218.47" y="231.62" width="58.64" height="5.14"/>
      <polygon class="cls-13" points="213.19 149.59 225.34 232.34 271.74 232.34 282.64 149.59 213.19 149.59"/>
      <path class="cls-9" d="M272.26,144.6s-4.85-20.86-10.21-21.05-6.32,0-6.32,0l.26-2.04h5.87s5.49-1.55,13.66,23.1h-3.26Z"/>
      <rect class="cls-17" x="242.58" y="119.14" width="15.58" height="7.15" rx="3.57" ry="3.57"/>
    </g>
    <g id="PNoir">
      <ellipse class="cls-1" cx="12.94" cy="299.78" rx="6.77" ry="6.26"/>
      <ellipse class="cls-1" cx="87.79" cy="299.78" rx="6.77" ry="6.26"/>
      <rect class="cls-1" x="46.3" y="328.08" width="13.79" height="7.23"/>
      <path class="cls-3" d="M13.19,264.68s.51,38.13,1.36,48.51,25.36,19.4,38.64,19.57c13.28.17,31.83-13.79,31.83-13.79,0,0,8.15-42.31,5.28-54.3-4.81-20.04-38.1-17.7-38.1-17.7,0,0-30.28-.94-39.01,17.7Z"/>
    </g>
    <g id="PBlond">
      <ellipse class="cls-1" cx="109.15" cy="307.44" rx="5.63" ry="5.88"/>
      <ellipse class="cls-1" cx="191.11" cy="307.99" rx="5.63" ry="5.88"/>
      <ellipse class="cls-19" cx="149.69" cy="279.42" rx="40.54" ry="23.55"/>
      <polygon class="cls-19" points="109.15 279.29 109.55 335.59 190.23 335.59 190.23 279.29 109.15 279.29"/>
    </g>
    <g id="PBlanc">
      <ellipse id="CranePBlanc" class="cls-12" cx="246.92" cy="317.16" rx="29.02" ry="15.88"/>
      <polygon id="CouPBlanc" class="cls-25" points="241.28 331.4 241.28 335.31 253.96 335.4 253.96 331.4 241.28 331.4"/>
      <ellipse id="LOreillePBlanc" class="cls-1" cx="207.32" cy="300.17" rx="5.63" ry="5.88"/>
      <ellipse id="ROreillePBlanc" class="cls-1" cx="288.09" cy="300.17" rx="5.63" ry="5.88"/>
      <path id="ChvxBlanc" class="cls-15" d="M222.72,326.21l48.13.28s14.72-11.06,15.49-20.68,1.11-33.79,1.11-33.79c0,0-.6-2.04,0-4.26s.68-2.3,1.53-3.49.94-1.79,1.02-3.83-2.21-15.15-3.23-16.51c0,0-2.72,6.98-7.83,8.26-6.47.17-20.68.17-20.68.17l-36.34-.85s-8.77,1.62-10.3,12.77c0,0-4.09-.26-4.51,5.19s0,37.19,0,37.19c0,0,2.58,13.85,15.62,19.55Z"/>
    </g>
  </g>
</svg>