<?xml version="1.0" encoding="UTF-8"?>
<svg id="Calque_2" data-name="Calque 2" xmlns="http://www.w3.org/2000/svg" viewBox="0 0 453.11 351.42">
  <defs>
    <style>
      .cls-1 {
        fill: #bac2c8;
      }

      .cls-1, .cls-2, .cls-3, .cls-4, .cls-5, .cls-6, .cls-7, .cls-8, .cls-9, .cls-10, .cls-11, .cls-12, .cls-13, .cls-14, .cls-15, .cls-16, .cls-17 {
        stroke-width: 0px;
      }

      .cls-2 {
        fill: #b7c4cb;
      }

      .cls-3 {
        fill: #889398;
      }

      .cls-4 {
        fill: #18b45d;
      }

      .cls-5 {
        fill: #6b7777;
      }

      .cls-6 {
        fill: #221f20;
      }

      .cls-7 {
        fill: #bfc2c9;
      }

      .cls-8 {
        fill: #d02f1f;
      }

      .cls-9 {
        fill: #9ccc6c;
      }

      .cls-10 {
        fill: #bbc3c6;
      }

      .cls-11 {
        fill: #afb1b3;
      }

      .cls-12 {
        fill: #ffd368;
      }

      .cls-13 {
        fill: #fff;
      }

      .cls-14 {
        fill: #d7dcdd;
      }

      .cls-15 {
        fill: #a0d763;
      }

      .cls-16 {
        fill: #313637;
        opacity: .4;
      }

      .cls-17 {
        fill: #bcc3c6;
      }
    </style>
  </defs>
  <g id="Calque_1-2" data-name="Calque 1">
    <g id="DesignPageExpo">
      <rect id="BlackBg" class="cls-16" width="453.11" height="351.42"/>
      <rect id="WhitePageBG" class="cls-13" x="60.6" y="41.87" width="332.94" height="243.06"/>
      <rect class="cls-11" x="51.74" y="32.34" width="349.79" height="9.87"/>
      <g>
        <path class="cls-15" d="M82.34,80.65v-12.9c0-2.36,1.91-4.28,4.28-4.28h280.92c2.9,0,5.26,2.35,5.26,5.26v215.69h6.45V63.55c0-3.92-3.18-7.11-7.11-7.11H82.47c-3.92,0-7.11,3.18-7.11,7.11v220.87h6.98V80.65Z"/>
        <path class="cls-13" d="M82.34,80.65v203.77h8.52v-74.37h83.04v74.37h9.23v-114.96h112.84v114.96h12.3v-20.56h51.34v20.56h6.46V87.77c0-.55.45-1,1-1h.52c.55,0,1,.45,1,1v196.66h4.2V80.65H82.34ZM89.2,86.76h270.4v44.85H89.2v-44.85ZM109.71,196.29c0,2.24-1.82,4.06-4.06,4.06h-11.26c-2.24,0-4.06-1.82-4.06-4.06v-2.47c0-2.24,1.82-4.06,4.06-4.06h11.26c2.24,0,4.06,1.82,4.06,4.06v2.47ZM109.71,176c0,2.24-1.82,4.06-4.06,4.06h-11.26c-2.24,0-4.06-1.82-4.06-4.06v-2.47c0-2.24,1.82-4.06,4.06-4.06h11.26c2.24,0,4.06,1.82,4.06,4.06v2.47ZM174.41,200.34h-57.44v-10.58h57.44v10.58ZM174.41,180.05h-57.44v-10.58h57.44v10.58ZM89.2,163.42v-22.25h270.4v22.25H89.2ZM307.2,175.32v-2.21c0-2.01,1.63-3.64,3.64-3.64h44.17c2.01,0,3.64,1.63,3.64,3.64v2.21c0,2.01-1.63,3.64-3.64,3.64h-44.17c-2.01,0-3.64-1.63-3.64-3.64ZM359.6,186.91v53.34h-51.34v-53.34h51.34ZM318.81,256.55h-10.55v-10.58h10.55v10.58ZM339.21,256.55h-10.55v-10.58h10.55v10.58ZM360.14,256.55h-10.55v-10.58h10.55v10.58Z"/>
        <path class="cls-9" d="M359.6,86.76H89.2v44.85h270.4v-44.85ZM129.3,125.8h-33v-33.11h33v33.11Z"/>
        <rect class="cls-13" x="96.3" y="92.7" width="33" height="33.11"/>
        <rect class="cls-10" x="89.2" y="141.17" width="270.4" height="22.25"/>
        <rect class="cls-9" x="183.12" y="169.47" width="112.84" height="114.96"/>
        <rect class="cls-10" x="90.86" y="210.05" width="83.04" height="74.37"/>
        <rect class="cls-1" x="308.26" y="186.91" width="51.34" height="53.34"/>
        <rect class="cls-17" x="308.26" y="263.87" width="51.34" height="20.56"/>
        <rect class="cls-9" x="308.26" y="245.97" width="10.55" height="10.58"/>
        <rect class="cls-9" x="328.66" y="245.97" width="10.55" height="10.58"/>
        <rect class="cls-9" x="349.59" y="245.97" width="10.55" height="10.58"/>
        <rect class="cls-9" x="116.98" y="189.76" width="57.44" height="10.58"/>
        <rect class="cls-9" x="90.34" y="189.76" width="19.37" height="10.58" rx="4.06" ry="4.06"/>
        <rect class="cls-9" x="116.98" y="169.47" width="57.44" height="10.58"/>
        <rect class="cls-9" x="90.34" y="169.47" width="19.37" height="10.58" rx="4.06" ry="4.06"/>
        <rect class="cls-9" x="307.2" y="169.47" width="51.45" height="9.49" rx="3.64" ry="3.64"/>
        <path class="cls-7" d="M372.79,68.73c0-2.9-2.35-5.26-5.26-5.26H86.62c-2.36,0-4.28,1.91-4.28,4.28v12.9h290.45v-11.92ZM89.9,74.31c-1.19,0-2.15-.97-2.15-2.16s.96-2.16,2.15-2.16,2.15.97,2.15,2.16-.96,2.16-2.15,2.16ZM97.97,74.22c-1.19,0-2.15-.97-2.15-2.16s.96-2.16,2.15-2.16,2.15.97,2.15,2.16-.96,2.16-2.15,2.16ZM106.03,74.31c-1.19,0-2.15-.97-2.15-2.16s.96-2.16,2.15-2.16,2.15.97,2.15,2.16-.96,2.16-2.15,2.16ZM347.33,72.74c0,1.07-.87,1.94-1.94,1.94H115.99c-1.07,0-1.94-.87-1.94-1.94v-1.18c0-1.07.87-1.94,1.94-1.94h229.4c1.07,0,1.94.87,1.94,1.94v1.18ZM368.59,72.74c0,1.07-.87,1.94-1.94,1.94h-11.27c-1.07,0-1.94-.87-1.94-1.94v-1.18c0-1.07.87-1.94,1.94-1.94h11.27c1.07,0,1.94.87,1.94,1.94v1.18Z"/>
        <rect class="cls-5" x="114.04" y="69.62" width="233.29" height="5.07" rx="1.94" ry="1.94"/>
        <path class="cls-8" d="M89.9,70c-1.19,0-2.15.97-2.15,2.16s.96,2.16,2.15,2.16,2.15-.97,2.15-2.16-.96-2.16-2.15-2.16Z"/>
        <path class="cls-12" d="M97.97,69.91c-1.19,0-2.15.97-2.15,2.16s.96,2.16,2.15,2.16,2.15-.97,2.15-2.16-.96-2.16-2.15-2.16Z"/>
        <ellipse class="cls-4" cx="106.03" cy="72.15" rx="2.15" ry="2.16"/>
        <rect class="cls-5" x="353.43" y="69.62" width="15.16" height="5.07" rx="1.94" ry="1.94"/>
        <path class="cls-2" d="M368.59,87.77c0-.55-.45-1-1-1h-.52c-.55,0-1,.45-1,1v196.66h2.53V87.77ZM367.56,135.59h-.51c-.53,0-.96-.43-.96-.96v-45.17c0-.53.43-.96.96-.96h.51c.53,0,.96.43.96.96v45.17c0,.53-.43.96-.96.96Z"/>
        <rect class="cls-3" x="366.1" y="88.5" width="2.43" height="47.1" rx=".96" ry=".96"/>
        <rect class="cls-11" x="379.23" y="284.43" width="22.96" height="9.87"/>
        <rect class="cls-11" x="52.4" y="284.43" width="22.96" height="9.87"/>
        <rect class="cls-11" x="372.79" y="284.43" width="6.45" height="9.87"/>
        <rect class="cls-11" x="75.36" y="284.43" width="6.98" height="9.87"/>
        <rect class="cls-11" x="82.34" y="284.43" width="8.52" height="9.87"/>
        <rect class="cls-11" x="368.59" y="284.43" width="4.2" height="9.87"/>
        <rect class="cls-11" x="295.96" y="284.43" width="12.3" height="9.87"/>
        <rect class="cls-11" x="173.89" y="284.43" width="9.23" height="9.87"/>
        <rect class="cls-11" x="359.6" y="284.43" width="6.46" height="9.87"/>
        <rect class="cls-11" x="183.12" y="284.43" width="112.84" height="9.87"/>
        <rect class="cls-11" x="90.86" y="284.43" width="83.04" height="9.87"/>
        <rect class="cls-11" x="308.26" y="284.43" width="51.34" height="9.87"/>
        <rect class="cls-11" x="366.06" y="284.43" width="2.53" height="9.87"/>
      </g>
      <rect class="cls-14" x="226.04" y="294.3" width="1.7" height="11.57"/>
      <path class="cls-14" d="M226.89,304.75c-4.48,0-8.11,3.63-8.11,8.11s3.63,8.11,8.11,8.11,8.11-3.63,8.11-8.11-3.63-8.11-8.11-8.11ZM226.89,319.08c-3.43,0-6.22-2.78-6.22-6.22s2.78-6.22,6.22-6.22,6.22,2.78,6.22,6.22-2.78,6.22-6.22,6.22Z"/>
      <rect class="cls-6" y="327.83" width="453.11" height="23.59"/>
    </g>
  </g>
</svg>