<?xml version="1.0" encoding="UTF-8"?>
<svg id="Calque_2" data-name="Calque 2" xmlns="http://www.w3.org/2000/svg" viewBox="0 0 86.52 79.36">
  <defs>
    <style>
      .cls-1 {
        fill: #ffd067;
      }

      .cls-1, .cls-2 {
        stroke-width: 0px;
      }

      .cls-2 {
        fill: #fff;
      }
    </style>
  </defs>
  <g id="Calque_1-2" data-name="Calque 1">
    <g id="Lune-Moon-Icon">
      <path class="cls-2" d="M1.19,70.07s-6.23-13.59,9.77-12.39c1.7-2.89,4.62-11.43,13.47-11.09s12.77,9.97,12.77,9.97c0,0,19.99-3.67,20.84,13.52H1.19Z"/>
      <path class="cls-1" d="M41.82,0c-6.97,0-13.5,1.85-19.14,5.06,17,.01,30.78,12.6,30.78,28.13s-13.79,28.13-30.81,28.13c-5.21,0-10.11-1.19-14.42-3.27,6.69,11.61,19.22,19.44,33.59,19.44,21.4,0,38.74-17.35,38.74-38.74S63.21,0,41.82,0Z"/>
      <path class="cls-2" d="M29.67,79.36s-2.21-13.62,13.79-12.43c1.7-2.89,1.87-9.19,10.72-8.85s9.19,8.34,9.19,8.34c0,0,22.3-4.26,23.15,12.94H29.67Z"/>
    </g>
  </g>
</svg>