<?xml version="1.0" encoding="UTF-8"?>
<svg id="Calque_1" data-name="Calque 1" xmlns="http://www.w3.org/2000/svg" viewBox="0 0 85 145">
  <defs>
    <style>
      .cls-1 {
        fill: #d17620;
      }

      .cls-1, .cls-2, .cls-3, .cls-4, .cls-5 {
        stroke-width: 0px;
      }

      .cls-2 {
        fill: #fcd36d;
      }

      .cls-3 {
        fill: #fff;
        opacity: .4;
      }

      .cls-4 {
        fill: #404042;
      }

      .cls-5 {
        fill: #bc813e;
      }
    </style>
  </defs>
  <g id="Crayon">
    <polygon id="crayonBase" class="cls-3" points="25.51 42 2.02 98.62 4.22 144.57 39.13 113.26 68.75 42 25.51 42"/>
    <path id="FullCVCrayon" class="cls-2" d="M2.02,98.62C15.53,66.15,29.03,33.67,42.53,1.2c13.9,1.08,27.8,2.16,41.7,3.23-15.04,36.27-30.07,72.55-45.11,108.82l-33.66-7.55-3.45-7.09Z"/>
    <polygon id="BarVCrayon" class="cls-1" points="56.36 2.27 70.36 3.36 24.62 114.32 11.98 109.21 56.36 2.27"/>
    <path id="PreMineVCrayon" class="cls-5" d="M4.22,144.57l34.91-31.32-4.17-1.36s-1.49-3.28-7.6-3.89c0,0-.79-3.34-9.06-2.49,0,0-.57-3.45-8.94-2.49,0,0,1.17-4.91-7.34-4.4l2.19,45.96Z"/>
    <polygon id="MineCrayon" class="cls-4" points="4.22 144.57 3.58 131.2 14.36 135.47 4.22 144.57"/>
  </g>
</svg>