<?xml version="1.0" encoding="UTF-8"?>
<svg id="Calque_2" data-name="Calque 2" xmlns="http://www.w3.org/2000/svg" viewBox="0 0 82.21 143.37">
  <defs>
    <style>
      .cls-1 {
        fill: #d17620;
      }

      .cls-1, .cls-2, .cls-3, .cls-4, .cls-5 {
        stroke-width: 0px;
      }

      .cls-2 {
        fill: #fcd36d;
      }

      .cls-3 {
        fill: #fff;
        opacity: .4;
      }

      .cls-4 {
        fill: #404042;
      }

      .cls-5 {
        fill: #bc813e;
      }
    </style>
  </defs>
  <g id="Calque_1-2" data-name="Calque 1">
    <g id="Crayon">
      <polygon id="crayonBase" class="cls-3" points="23.49 40.8 0 97.41 2.19 143.37 37.11 112.05 66.72 40.8 23.49 40.8"/>
      <path id="FullCVCrayon" class="cls-2" d="M0,97.41C13.5,64.94,27.01,32.47,40.51,0c13.9,1.08,27.8,2.16,41.7,3.23-15.04,36.27-30.07,72.55-45.11,108.82l-33.66-7.55L0,97.41Z"/>
      <polygon id="BarVCrayon" class="cls-1" points="54.34 1.07 68.33 2.16 22.6 113.12 9.96 108.01 54.34 1.07"/>
      <path id="PreMineVCrayon" class="cls-5" d="M2.19,143.37l34.91-31.32-4.17-1.36s-1.49-3.28-7.6-3.89c0,0-.79-3.34-9.06-2.49,0,0-.57-3.45-8.94-2.49,0,0,1.17-4.91-7.34-4.4l2.19,45.96Z"/>
      <polygon id="MineCrayon" class="cls-4" points="2.19 143.37 1.55 130 12.34 134.27 2.19 143.37"/>
    </g>
  </g>
</svg>