<?xml version="1.0" encoding="UTF-8"?>
<svg id="Calque_2" data-name="Calque 2" xmlns="http://www.w3.org/2000/svg" viewBox="0 0 66.94 103.3">
  <defs>
    <style>
      .cls-1 {
        fill: #d17620;
      }

      .cls-1, .cls-2, .cls-3, .cls-4, .cls-5 {
        stroke-width: 0px;
      }

      .cls-2 {
        fill: #fcd36d;
      }

      .cls-3 {
        fill: #fff;
        opacity: .4;
      }

      .cls-4 {
        fill: #404042;
      }

      .cls-5 {
        fill: #bc813e;
      }
    </style>
  </defs>
  <g id="Calque_1-2" data-name="Calque 1">
    <g>
      <path class="cls-3" d="M37.11,71.98h0s0,0,0,0L66.72.73h-.08c-9.85,23.75-19.69,47.5-29.54,71.26Z"/>
      <path class="cls-3" d="M23.49.73L0,57.34C7.85,38.47,15.7,19.6,23.54.73h-.06Z"/>
      <path class="cls-2" d="M7.34,61.75c2.24-.26,3.91-.19,5.17.03L37.85.73l.3-.73h-14.31c-.1.24-.2.48-.3.73C15.7,19.6,7.85,38.47,0,57.34c8.51-.51,7.34,4.4,7.34,4.4Z"/>
      <path class="cls-2" d="M25.27,66.55c.05.11.07.18.07.18,6.11.62,7.6,3.89,7.6,3.89l4.17,1.36h0C46.95,48.23,56.8,24.48,66.64.73l.3-.73h-14.24l-.3.73-27.13,65.82Z"/>
      <path class="cls-1" d="M12.51,61.78c3.44.61,3.76,2.46,3.76,2.46,7.13-.73,8.7,1.64,9,2.31L52.4.73l.3-.73h-14.55l-.3.73L12.51,61.78Z"/>
      <path class="cls-5" d="M32.94,70.62s-1.49-3.28-7.6-3.89c0,0-.02-.07-.07-.18-.3-.67-1.87-3.05-9-2.31,0,0-.32-1.84-3.76-2.46-1.26-.23-2.93-.29-5.17-.03,0,0,1.17-4.91-7.34-4.4l1.55,32.59,10.78,4.27,24.77-22.22h0s-4.17-1.36-4.17-1.36Z"/>
      <polygon class="cls-4" points="2.19 103.3 12.34 94.2 1.55 89.93 2.19 103.3"/>
    </g>
  </g>
</svg>