<?xml version="1.0" encoding="UTF-8"?>
<svg id="Calque_2" data-name="Calque 2" xmlns="http://www.w3.org/2000/svg" viewBox="0 0 66.94 103.3">
  <defs>
    <style>
      .cls-1 {
        fill: #d17620;
      }

      .cls-1, .cls-2, .cls-3, .cls-4, .cls-5 {
        stroke-width: 0px;
      }

      .cls-2 {
        fill: #fcd36d;
      }

      .cls-3 {
        fill: #fff;
        opacity: .4;
      }

      .cls-4 {
        fill: #404042;
      }

      .cls-5 {
        fill: #bc813e;
      }
    </style>
  </defs>
  <g id="Calque_1-2" data-name="Calque 1">
    <g>
      <path class="cls-3" d="M37.11,71.98h0S66.72.73,66.72.73h-.08c-9.85,23.75-19.69,47.5-29.54,71.26h0Z"/>
      <path class="cls-3" d="M23.49.73L0,57.34C7.85,38.47,15.7,19.6,23.54.73h-.06Z"/>
      <path class="cls-2" d="M52.7,0l-.3.73h14.24l.3-.73h-14.24Z"/>
      <path class="cls-2" d="M38.15,0h-14.31c-.1.24-.2.48-.3.73h14.31l.3-.73Z"/>
      <path class="cls-2" d="M7.34,61.75c2.24-.26,3.91-.19,5.17.03L37.85.73h-14.31C15.7,19.6,7.85,38.47,0,57.34c8.51-.51,7.34,4.4,7.34,4.4Z"/>
      <path class="cls-2" d="M25.27,66.55c.05.11.07.18.07.18,6.11.62,7.6,3.89,7.6,3.89l4.17,1.36h0C46.95,48.23,56.8,24.48,66.64.73h-14.24l-27.13,65.82Z"/>
      <polygon class="cls-1" points="37.85 .73 52.4 .73 52.7 0 38.15 0 37.85 .73"/>
      <path class="cls-1" d="M12.51,61.78c3.44.61,3.76,2.46,3.76,2.46,7.13-.73,8.7,1.64,9,2.31L52.4.73h-14.55L12.51,61.78Z"/>
      <polygon class="cls-5" points="24.23 69.09 22.6 73.04 9.96 67.94 10.74 66.06 3.45 64.43 0 57.34 1.55 89.93 12.34 94.2 37.11 71.98 37.11 71.98 24.23 69.09"/>
      <path class="cls-5" d="M37.11,71.98l-4.17-1.36s-1.49-3.28-7.6-3.89c0,0-.02-.07-.07-.18l-1.05,2.54,12.88,2.89Z"/>
      <path class="cls-5" d="M10.74,66.06l1.78-4.28c-1.26-.23-2.93-.29-5.17-.03,0,0,1.17-4.91-7.34-4.4l3.45,7.09,7.29,1.64Z"/>
      <polygon class="cls-5" points="9.96 67.94 22.6 73.04 24.23 69.09 10.74 66.06 9.96 67.94"/>
      <path class="cls-5" d="M16.28,64.24s-.32-1.84-3.76-2.46l-1.78,4.28,13.49,3.03,1.05-2.54c-.3-.67-1.87-3.05-9-2.31Z"/>
      <polygon class="cls-4" points="1.55 89.93 2.19 103.3 1.55 89.93 1.55 89.93"/>
      <polygon class="cls-4" points="12.34 94.2 12.34 94.2 2.19 103.3 12.34 94.2"/>
      <polygon class="cls-4" points="2.19 103.3 12.34 94.2 1.55 89.93 2.19 103.3"/>
    </g>
  </g>
</svg>