<?xml version="1.0" encoding="UTF-8"?>
<svg id="Calque_2" data-name="Calque 2" xmlns="http://www.w3.org/2000/svg" viewBox="0 0 23.19 23.19">
  <defs>
    <style>
      .cls-1 {
        fill: #e3e8eb;
      }

      .cls-1, .cls-2 {
        stroke-width: 0px;
      }

      .cls-2 {
        fill: none;
      }
    </style>
  </defs>
  <g id="Calque_1-2" data-name="Calque 1">
    <g>
      <path class="cls-2" d="M15.47,13.13c.02-.05.03-.11.05-.17.15-.43.25-.89.25-1.37,0-.54-.11-1.06-.3-1.53-.02-.06-.04-.11-.07-.16-.43-.97-1.21-1.74-2.18-2.16-.11-.05-.22-.07-.34-.11-.42-.14-.86-.23-1.32-.23-.58,0-1.13.12-1.63.33-.04.02-.08.04-.11.06-.92.42-1.66,1.16-2.08,2.08-.03.06-.06.13-.08.2-.19.48-.3.99-.3,1.53,0,.49.1.96.26,1.4.02.04.02.09.04.13.37.95,1.08,1.71,1.98,2.18.06.03.12.07.18.1.53.24,1.12.39,1.74.39.47,0,.9-.09,1.32-.23.22-.07.43-.16.63-.27.88-.47,1.58-1.23,1.95-2.16Z"/>
      <path class="cls-1" d="M21.66,10.06h-1.07c-.23-1.34-.73-2.58-1.46-3.66l.61-.58c.62-.58.65-1.55.07-2.17s-1.55-.65-2.17-.07l-.63.59c-1.19-.9-2.59-1.53-4.13-1.79v-.86c0-.85-.69-1.53-1.53-1.53s-1.53.69-1.53,1.53v.86c-1.43.23-2.75.78-3.88,1.58l-.64-.6c-.62-.58-1.59-.55-2.17.07s-.55,1.59.07,2.17l.55.52c-.84,1.15-1.42,2.49-1.66,3.94h-.57c-.85,0-1.53.69-1.53,1.53s.69,1.53,1.53,1.53h.55c.22,1.36.71,2.62,1.45,3.72l-.55.52c-.62.58-.65,1.55-.07,2.17.58.62,1.55.65,2.17.07l.56-.52c1.2.93,2.64,1.56,4.2,1.82v.76c0,.85.69,1.53,1.53,1.53s1.53-.69,1.53-1.53v-.77c1.67-.28,3.19-.99,4.44-2.02l.55.51c.62.58,1.59.55,2.17-.07s.55-1.59-.07-2.17l-.64-.6c.63-1.03,1.07-2.18,1.26-3.42h1.06c.85,0,1.53-.69,1.53-1.53s-.69-1.53-1.53-1.53ZM12.89,15.56c-.42.14-.86.23-1.32.23-.62,0-1.21-.14-1.74-.39-.06-.03-.12-.07-.18-.1-.9-.47-1.6-1.23-1.98-2.18-.02-.04-.02-.09-.04-.13-.16-.44-.26-.91-.26-1.4,0-.54.11-1.06.3-1.53.03-.07.05-.13.08-.2.42-.92,1.16-1.66,2.08-2.08.04-.02.07-.04.11-.06.5-.21,1.05-.33,1.63-.33.47,0,.9.09,1.32.23.11.04.23.06.34.11.97.42,1.75,1.19,2.18,2.16.02.05.04.11.07.16.19.48.3.99.3,1.53,0,.48-.1.94-.25,1.37-.02.05-.03.11-.05.17-.37.94-1.06,1.7-1.95,2.16-.2.11-.41.2-.63.27Z"/>
    </g>
  </g>
</svg>