<?xml version="1.0" encoding="UTF-8"?>
<svg id="Calque_2" data-name="Calque 2" xmlns="http://www.w3.org/2000/svg" viewBox="0 0 19.15 15.73">
  <defs>
    <style>
      .cls-1 {
        fill: #fff;
      }

      .cls-1, .cls-2 {
        stroke-width: 0px;
      }

      .cls-2 {
        fill: #f0ce65;
      }
    </style>
  </defs>
  <g id="Calque_1-2" data-name="Calque 1">
    <g>
      <path class="cls-1" d="M1.08,13.69c0,.96.78,1.74,1.74,1.74h4.45L1.08,8.76v4.93Z"/>
      <path class="cls-1" d="M15.11,15.44c.96,0,1.74-.78,1.74-1.74V5.15l-2.81,3.45v2.45c0,.96-.78,1.74-1.74,1.74h-2.36l-2.16,2.64h7.34Z"/>
      <path class="cls-1" d="M3.89,7.56v-3.17c0-.96.78-1.74,1.74-1.74h6.67c.85,0,1.35.05,1.5.86l2.57-2.95c-.29-.55-.6-.55-1.26-.55H2.82c-.96,0-1.74.78-1.74,1.74v3.52l.46.39,2.35,1.9Z"/>
      <path class="cls-2" d="M19.15,1.52l-1.92-1.3-.59.7s0,0,0-.01l-2.63,3.14c.02.1.03.21.03.32v.02c0-.11-.01-.21-.03-.32l-6.74,8.05-3.37-3.52-2.5-2.61-.31.36-1.08,1.25,1.08,1.16,6.19,6.67.27.29.24-.29,2.16-2.64,4.1-5.02v-.02l2.81-3.44v.02l2.3-2.81Z"/>
    </g>
  </g>
</svg>