<?xml version="1.0" encoding="UTF-8"?>
<svg id="Calque_2" data-name="Calque 2" xmlns="http://www.w3.org/2000/svg" xmlns:xlink="http://www.w3.org/1999/xlink" viewBox="0 0 101 103">
  <defs>
    <style>
      .cls-1 {
        fill: #ffee8d;
        filter: url(#outer-glow-1);
      }

      .cls-1, .cls-2, .cls-3, .cls-4, .cls-5 {
        stroke-width: 0px;
      }

      .cls-2 {
        fill: #000;
      }

      .cls-2, .cls-4 {
        opacity: .4;
      }

      .cls-3 {
        fill: #fff;
      }

      .cls-4 {
        fill: #f7f6eb;
      }

      .cls-5 {
        fill: #e8e6d9;
      }
    </style>
    <filter id="outer-glow-1" filterUnits="userSpaceOnUse">
      <feOffset dx="0" dy="0"/>
      <feGaussianBlur result="blur" stdDeviation="16"/>
      <feFlood flood-color="#ffee8d" flood-opacity=".81"/>
      <feComposite in2="blur" operator="in"/>
      <feComposite in="SourceGraphic"/>
    </filter>
  </defs>
  <g id="Calque_1-2" data-name="Calque 1">
    <g id="AmpouleIcone">
      <rect class="cls-2" x="44.52" y="69.61" width="11.87" height="6.01"/>
      <rect class="cls-3" x="44.52" y="62.74" width="11.87" height="6.86"/>
      <rect class="cls-1" x="48.54" y="48.55" width="3.96" height="6.06"/>
      <rect class="cls-5" x="46.47" y="56.61" width="1" height="6.13"/>
      <rect class="cls-5" x="54.47" y="56.61" width="1" height="6.13"/>
      <rect class="cls-5" x="44.52" y="54.57" width="4.02" height="2.04"/>
      <rect class="cls-5" x="52.5" y="54.57" width="4.02" height="2.04"/>
      <rect class="cls-5" x="45.51" y="53.59" width="3.03" height="2.04"/>
      <rect class="cls-5" x="52.5" y="53.62" width="3.03" height="2.04"/>
      <rect class="cls-5" x="48.54" y="54.61" width="3.96" height="1.02"/>
      <path id="AmpouleSpherePrincipale" class="cls-4" d="M50.46,38.83c-6.97,0-12.63,5.65-12.63,12.63,0,4.95,2.85,9.21,6.99,11.29h11.07v.1c4.25-2.03,7.19-6.36,7.19-11.38,0-6.97-5.65-12.63-12.63-12.63Z"/>
    </g>
  </g>
</svg>