<?xml version="1.0" encoding="UTF-8"?>
<svg id="Calque_1" data-name="Calque 1" xmlns="http://www.w3.org/2000/svg" viewBox="0 0 65 75">
  <defs>
    <style>
      .cls-1 {
        fill: #bcbcbc;
      }

      .cls-1, .cls-2, .cls-3, .cls-4, .cls-5 {
        stroke-width: 0px;
      }

      .cls-2 {
        fill: #cdd5cb;
      }

      .cls-3 {
        fill: #fff;
      }

      .cls-4 {
        fill: #9e9e9e;
      }

      .cls-5 {
        fill: #7c7c7c;
      }
    </style>
  </defs>
  <g id="Contrat_paper-icon" data-name="Contrat/paper-icon">
    <rect class="cls-3" x="5.86" y="1.42" width="55.91" height="71.23"/>
    <path class="cls-2" d="M5.86,1.42S1.05,1.04,1.01,3.76s2.9,3.49,4.85,3.49V1.42Z"/>
    <path class="cls-2" d="M61.78,73.36s2.11-1.85,2.11-3.7-2.11-2.87-2.11-2.87H10.72v6.57h51.06Z"/>
    <rect class="cls-2" x="10.72" y="7.25" width="9.96" height="1.83"/>
    <rect class="cls-2" x="10.72" y="10.57" width="9.96" height="1.83"/>
    <rect class="cls-2" x="10.72" y="13.39" width="9.96" height="1.83"/>
    <rect class="cls-5" x="9.19" y="18.26" width="49.44" height="1.02"/>
    <rect class="cls-4" x="10.56" y="22.39" width="47.91" height="1.02"/>
    <rect class="cls-4" x="10.72" y="25.2" width="47.91" height="1.02"/>
    <rect class="cls-4" x="10.72" y="29.29" width="47.91" height="1.02"/>
    <rect class="cls-4" x="10.72" y="32.41" width="47.91" height="1.02"/>
    <rect class="cls-4" x="10.72" y="36.24" width="47.91" height="1.02"/>
    <rect class="cls-4" x="10.72" y="40.33" width="47.91" height="1.02"/>
    <rect class="cls-4" x="10.72" y="43.97" width="47.91" height="1.02"/>
    <rect class="cls-4" x="10.72" y="47.21" width="47.91" height="1.02"/>
    <rect class="cls-4" x="10.72" y="51.51" width="47.91" height="1.02"/>
    <rect class="cls-1" x="10.72" y="54.36" width="47.91" height="1.7"/>
    <rect class="cls-4" x="44.78" y="59.28" width="11.94" height="1.02"/>
    <rect class="cls-4" x="44.78" y="62.31" width="11.94" height="1.02"/>
  </g>
</svg>